<?xml version="1.0" standalone="no"?>
<!DOCTYPE svg PUBLIC "-//W3C//DTD SVG 1.1//EN" "http://www.w3.org/Graphics/SVG/1.1/DTD/svg11.dtd" >
<svg xmlns="http://www.w3.org/2000/svg" xmlns:xlink="http://www.w3.org/1999/xlink" version="1.1">
<metadata></metadata>
<defs>
<font id="jaroregular" horiz-adv-x="1068" vert-adv-y="2048" >
<font-face units-per-em="2048" ascent="1638" descent="-410" />
<missing-glyph horiz-adv-x="325" />
<glyph unicode="&#xfb01;" horiz-adv-x="1282" vert-adv-y="0" d="M61 666v187q0 26 26 26h546q26 0 25 -26v-187q0 -26 -25 -26h-546q-26 0 -26 26zM151 26v1077q0 24 16 41l205 205q17 16 41 16h220q26 0 25 -26v-238q0 -26 -25 -26h-159v-1049q0 -26 -25 -26h-273q-26 0 -25 26zM843 26v1075q0 26 25 25h273q26 0 25 -25v-1075 q0 -26 -25 -26h-273q-26 0 -25 26zM843 1232v130q0 20 20 20h285q18 0 18 -20v-130q0 -20 -18 -21h-285q-20 0 -20 21z" />
<glyph unicode="&#xfb02;" horiz-adv-x="1258" vert-adv-y="0" d="M61 666v187q0 26 26 26h546q26 0 25 -26v-187q0 -26 -25 -26h-546q-26 0 -26 26zM151 26v1077q0 24 16 41l205 205q17 16 41 16h220q26 0 25 -26v-238q0 -26 -25 -26h-159v-1049q0 -26 -25 -26h-273q-26 0 -25 26zM831 26v1313q0 26 25 26h274q26 0 25 -26v-1313 q0 -26 -25 -26h-274q-26 0 -25 26z" />
<glyph horiz-adv-x="0" vert-adv-y="0" />
<glyph horiz-adv-x="682" />
<glyph unicode=" " horiz-adv-x="325" vert-adv-y="0" />
<glyph unicode="!" horiz-adv-x="596" vert-adv-y="0" d="M82 1338q-3 27 26 27h381q29 0 26 -27l-54 -793q-3 -25 -26 -25h-273q-23 0 -26 25zM110 36v325q0 28 25 28h328q26 0 25 -28v-325q0 -28 -25 -28h-328q-26 0 -25 28z" />
<glyph unicode="&#x22;" horiz-adv-x="786" vert-adv-y="0" d="M82 1338q-3 27 26 27h235q29 0 26 -27l-31 -444q-3 -24 -26 -24h-174q-23 0 -25 24zM418 1338q-3 27 26 27h235q29 0 26 -27l-31 -444q-3 -24 -26 -24h-174q-23 0 -25 24z" />
<glyph unicode="#" horiz-adv-x="1389" vert-adv-y="0" d="M29 279l55 225l1194 3l-37 -228h-1212zM113 719l54 223l1197 3l-40 -226h-1211zM198 0l304 1211h256l-304 -1211h-256zM623 0l307 1217h256l-307 -1217h-256z" />
<glyph unicode="$" horiz-adv-x="972" vert-adv-y="0" d="M43 26v151q0 13 1.5 20.5t11.5 14.5l236 192v190l-198 179q-17 14 -17 31v324q0 16 2 24t15 17l237 183q9 6 18 9.5t23 3.5h4v-1365h-307q-26 0 -26 26zM443 -125v1608q0 26 26 25h35q26 0 25 -25v-1608q0 -26 -25 -26h-35q-26 0 -26 26zM597 0v1365h307q26 0 26 -26 v-167q0 -18 -16 -30l-243 -187v-189l210 -221q6 -7 10.5 -15t4.5 -18v-309q0 -19 -13 -31l-236 -160q-7 -4 -15 -8t-18 -4h-17z" />
<glyph unicode="%" horiz-adv-x="993" vert-adv-y="0" d="M43 765v574q0 26 26 26l339 2q26 0 25 -26v-576q0 -26 -25 -26h-339q-26 0 -26 26zM44 0l803 1365h102l-803 -1365h-102zM186 884h104v338h-104v-338zM560 26v575q0 26 26 26l339 1q26 0 25 -26v-576q0 -26 -25 -26h-339q-26 0 -26 26zM703 145h104v338h-104v-338z" />
<glyph unicode="&#x26;" horiz-adv-x="1133" vert-adv-y="0" d="M43 263v221q0 22 10 31l116 135v65l-116 135q-10 9 -10 31v222q0 24 16 41l205 205q17 16 41 16h492q26 0 25 -26v-238q0 -26 -25 -26h-413v-358h290v162q0 26 25 25h240q26 0 26 -25v-162h122q26 0 26 -26v-85q0 -26 -26 -25h-106v-555q0 -26 -26 -26h-650q-24 0 -41 17 l-205 205q-16 16 -16 41zM391 364q0 -90 29.5 -144t125.5 -54t125.5 53.5t29.5 144.5q0 90 -29.5 143.5t-125.5 53.5t-125.5 -53.5t-29.5 -143.5z" />
<glyph unicode="'" horiz-adv-x="450" vert-adv-y="0" d="M82 1338q-3 27 26 27h235q29 0 26 -27l-31 -444q-3 -24 -26 -24h-174q-23 0 -25 24z" />
<glyph unicode="(" horiz-adv-x="762" vert-adv-y="0" d="M59 -65v1444q0 16 3.5 23t14.5 18l307 307q14 13 41 14h184q26 0 26 -26v-146q0 -9 -2 -17t-10 -16l-242 -243v-1273l242 -242q8 -7 10 -15.5t2 -16.5v-147q0 -26 -26 -26h-184q-27 0 -41 14l-307 308q-11 11 -14.5 17.5t-3.5 22.5z" />
<glyph unicode=")" horiz-adv-x="762" vert-adv-y="0" d="M128 -254q0 8 2.5 16.5t9.5 15.5l242 242v1273l-242 243q-7 8 -9.5 16t-2.5 17v146q0 26 26 26h184q27 0 41 -14l307 -307q11 -11 14 -17.5t3 -23.5v-1444q0 -16 -3 -22.5t-14 -17.5l-307 -308q-14 -14 -41 -14h-184q-26 0 -26 26v147z" />
<glyph unicode="*" horiz-adv-x="1000" vert-adv-y="0" d="M82 1067v34q0 26 26 25h317l-159 277q-13 23 10 34l29 17q24 13 36 -8l159 -276l158 276q14 22 36 8l30 -17q23 -10 10 -34l-159 -277h318q26 0 26 -25v-34q0 -26 -26 -26h-318l159 -276q11 -24 -10 -35l-30 -16q-23 -15 -36 8l-158 274l-159 -274q-12 -23 -36 -8l-29 16 q-24 12 -10 35l159 276h-317q-26 0 -26 26z" />
<glyph unicode="+" horiz-adv-x="727" vert-adv-y="0" d="M43 589v187q0 26 26 26h589q26 0 26 -26v-187q0 -26 -26 -26h-589q-26 0 -26 26zM244 387v591q0 26 25 26h189q26 0 25 -26v-591q0 -26 -25 -26h-189q-26 0 -25 26z" />
<glyph unicode="," horiz-adv-x="542" vert-adv-y="0" d="M82 97l2 259q0 28 27 28h324q26 0 26 -28v-313q0 -115 -54.5 -171t-145.5 -56h-128q-28 0 -28 27v144q0 27 28 26h75q31 0 31 26v31h-131q-26 0 -26 27z" />
<glyph unicode="-" horiz-adv-x="614" vert-adv-y="0" d="M20 546v273q0 26 26 26h522q26 0 26 -26v-273q0 -26 -26 -26h-522q-26 0 -26 26z" />
<glyph unicode="." horiz-adv-x="542" vert-adv-y="0" d="M82 36v325q0 28 26 28h327q26 0 26 -28v-325q0 -28 -26 -28h-327q-26 0 -26 28z" />
<glyph unicode="/" horiz-adv-x="800" vert-adv-y="0" d="M44 -143l401 1655q5 24 28 24h261q29 0 22 -28l-401 -1654q-6 -25 -27 -25h-261q-30 0 -23 28z" />
<glyph unicode="0" horiz-adv-x="1149" vert-adv-y="0" d="M123 94v1176q0 46 21 70t79 24l704 3q59 0 79.5 -24t20.5 -70v-1179q0 -46 -20.5 -70t-79.5 -24h-704q-58 0 -79 24t-21 70zM464 256h222v855h-222v-855z" />
<glyph unicode="1" horiz-adv-x="655" vert-adv-y="0" d="M29 1118v221q0 26 25 26h453q26 0 25 -26v-1313q0 -26 -25 -26h-290q-26 0 -26 26v1072l-137 -5q-26 0 -25 25z" />
<glyph unicode="2" horiz-adv-x="849" vert-adv-y="0" d="M74 358q0 10 4 17t11 16l324 394v208l-324 125q-15 5 -15 31v190q0 26 25 26h259q14 0 22.5 -4t18.5 -9l338 -149q13 -5 15.5 -14t2.5 -27v-442q0 -10 -5 -15t-13 -16l-320 -390v-41h366q26 0 26 -26v-206q0 -26 -26 -26h-683q-26 0 -25 26z" />
<glyph unicode="3" horiz-adv-x="1042" vert-adv-y="0" d="M123 26v204q0 26 25 26h431v307h-346q-26 0 -25 26v205q0 26 25 25h346v274h-431q-26 0 -25 25v221q0 26 25 26h509q24 0 41 -16l205 -205q16 -17 17 -41v-205q0 -22 -11 -31l-133 -152v-65l133 -151q10 -10 11 -31v-205q0 -25 -17 -41l-205 -205q-17 -17 -41 -17h-509 q-26 0 -25 26z" />
<glyph unicode="4" horiz-adv-x="1149" vert-adv-y="0" d="M123 453v886q0 26 25 26h290q26 0 26 -26v-640h222v640q0 26 26 26h289q26 0 26 -26v-1313q0 -26 -26 -26h-289q-26 0 -26 26v401h-538q-26 0 -25 26z" />
<glyph unicode="5" horiz-adv-x="909" vert-adv-y="0" d="M43 26v204q0 26 26 26h456v290h-456q-26 0 -26 25l1 768q0 26 26 26h772q26 0 25 -26v-204q0 -26 -25 -26h-456v-290h456q26 0 25 -25v-533q0 -18 -12 -33l-217 -216q-11 -12 -32 -12h-537q-26 0 -26 26z" />
<glyph unicode="6" horiz-adv-x="1184" vert-adv-y="0" d="M123 263v766q0 18 15 31l374 295q11 10 31 10h256q26 0 25 -26v-129q0 -18 -15 -30l-341 -253v-57h365q25 0 40 -17l171 -170q17 -17 18 -41v-379q0 -25 -18 -41l-204 -205q-17 -17 -41 -17h-413q-25 0 -41 17l-205 205q-17 16 -17 41zM438 454q0 -112 32.5 -151.5 t121.5 -39.5q90 0 121.5 39.5t31.5 151.5t-31.5 151.5t-121.5 39.5q-89 0 -121.5 -40t-32.5 -151z" />
<glyph unicode="7" horiz-adv-x="926" vert-adv-y="0" d="M41 1067v272q0 26 26 26h601q19 0 30 -15l139 -191q11 -19 6 -35l-314 -1101q-6 -23 -27 -23h-316q-30 0 -22 28l310 984v29h-407q-26 0 -26 26z" />
<glyph unicode="8" horiz-adv-x="1182" vert-adv-y="0" d="M123 263v221q0 20 10 31l116 135v65l-116 135q-10 10 -10 31v222q0 24 17 41l205 205q16 16 41 16h411q25 0 41 -16l204 -205q17 -17 18 -41v-222q0 -20 -10 -31l-116 -135v-65l116 -135q10 -10 10 -31v-221q0 -25 -18 -41l-204 -205q-16 -17 -41 -17h-411q-25 0 -41 17 l-205 205q-17 16 -17 41zM438 408q0 -112 32.5 -151.5t121.5 -39.5q90 0 121.5 39.5t31.5 151.5t-31.5 151.5t-121.5 39.5q-89 0 -121.5 -40t-32.5 -151zM438 957q0 -112 32.5 -151.5t121.5 -39.5q90 0 121.5 40t31.5 151q0 112 -31.5 152t-121.5 40q-89 0 -121.5 -40 t-32.5 -152z" />
<glyph unicode="9" horiz-adv-x="1184" vert-adv-y="0" d="M123 723v379q0 25 17 41l205 205q17 17 41 17h413q25 0 41 -17l204 -205q17 -16 18 -41v-766q0 -18 -15 -31l-374 -295q-11 -10 -31 -10h-256q-26 0 -26 26v129q0 18 16 30l341 253v57h-365q-25 0 -41 17l-171 170q-17 17 -17 41zM439 911q0 -112 32 -151.5t122 -39.5 q89 0 121 40t32 151q0 112 -32 151.5t-121 39.5q-90 0 -122 -39.5t-32 -151.5z" />
<glyph unicode=":" horiz-adv-x="542" vert-adv-y="0" d="M82 29v325q0 28 26 28h327q26 0 26 -28v-325q0 -28 -26 -28h-327q-26 0 -26 28zM82 735v325q0 28 26 28h327q26 0 26 -28v-325q0 -28 -26 -28h-327q-26 0 -26 28z" />
<glyph unicode=";" horiz-adv-x="542" vert-adv-y="0" d="M82 97l2 259q0 28 27 28h324q26 0 26 -28v-313q0 -115 -54.5 -171t-145.5 -56h-128q-28 0 -28 27v144q0 27 28 26h75q31 0 31 26v31h-131q-26 0 -26 27zM82 739v325q0 28 26 28h327q26 0 26 -28v-325q0 -28 -26 -28h-327q-26 0 -26 28z" />
<glyph unicode="&#x3c;" horiz-adv-x="693" vert-adv-y="0" d="M43 666v33q0 17 3 23t19 18l363 296q15 12 26 13t29 1h80q36 0 36 -26v-182q0 -9 -2 -18.5t-15 -14.5l-232 -90v-72l232 -91q13 -4 15 -14t2 -18v-183q0 -26 -36 -26h-80q-18 0 -29 0.5t-26 14.5l-363 295q-15 13 -18.5 18.5t-3.5 22.5z" />
<glyph unicode="=" horiz-adv-x="727" vert-adv-y="0" d="M43 387v188q0 26 26 26h589q26 0 26 -26v-188q0 -26 -26 -26h-589q-26 0 -26 26zM43 791v187q0 26 26 26h589q26 0 26 -26v-187q0 -26 -26 -26h-589q-26 0 -26 26z" />
<glyph unicode="&#x3e;" horiz-adv-x="693" vert-adv-y="0" d="M94 341v183q0 8 2 18t16 14l231 91v72l-231 90q-13 5 -15.5 14.5t-2.5 18.5v182q0 26 36 26h80q18 0 29 -0.5t26 -13.5l364 -296q15 -12 18 -17.5t3 -23.5v-33q0 -16 -3 -22t-18 -19l-364 -295q-15 -13 -26 -14t-29 -1h-80q-36 0 -36 26z" />
<glyph unicode="?" horiz-adv-x="768" vert-adv-y="0" d="M82 1140v199q0 26 26 26h293q19 0 31 -10l239 -227q15 -13 15 -30v-317q0 -19 -17 -33l-275 -253q-11 -11 -33 -12h-223q-26 0 -25 26v179q0 11 5 17t13 12l217 135v73l-251 184q-15 11 -15 31zM102 36v325q0 28 26 28h328q26 0 25 -28v-325q0 -28 -25 -28h-328 q-26 0 -26 28z" />
<glyph unicode="@" horiz-adv-x="1474" vert-adv-y="0" d="M43 108v924q0 14 3.5 26t14.5 22l239 238q24 20 48 20h761q25 0 48 -20l239 -238q19 -16 19 -48v-1006q0 -26 -25 -26h-511q-12 0 -19 5t-15 12l-51 52l-52 -52q-17 -17 -41 -17h-156q-25 0 -41 17l-205 205q-17 16 -17 41v566q0 24 17 41l205 205q16 17 41 18h548 q26 0 25 -26v-956q0 -26 26 -26h160q26 0 25 26v879q0 24 -16 41l-205 205q-17 16 -41 16h-676q-25 0 -41 -16l-205 -205q-17 -17 -17 -41v-839q0 -25 17 -41l205 -205q16 -17 41 -18h643v-85h-686q-27 0 -48 21l-239 236q-11 11 -14.5 23t-3.5 26zM606 299q0 -34 12.5 -47 t45.5 -13h71q34 0 46.5 13t12.5 47v554h-130q-33 0 -45.5 -13.5t-12.5 -45.5v-495z" />
<glyph unicode="A" horiz-adv-x="1143" vert-adv-y="0" d="M116 26v949q0 13 10 31l243 344q11 15 32 15h339q23 0 33 -15l244 -344q10 -14 10 -31v-949q0 -26 -26 -26h-289q-26 0 -26 26v435h-228v-435q0 -26 -26 -26h-291q-26 0 -25 26zM412 881q0 -117 33 -158.5t126 -41.5q94 0 127.5 41.5t33.5 158.5t-33 158t-128 41 q-93 0 -126 -41.5t-33 -157.5z" />
<glyph unicode="B" horiz-adv-x="1160" vert-adv-y="0" d="M128 26v1313q0 26 26 26h616q24 0 41 -16l205 -205q16 -17 16 -41v-215q0 -10 -4 -16.5t-12 -14.5l-161 -143l-15 -38l15 -28l161 -143q8 -8 12 -14t4 -17v-211q0 -25 -16 -41l-205 -205q-17 -17 -41 -17h-616q-26 0 -26 26zM415 392q0 -94 31 -128t115 -34 q85 0 116.5 34t31.5 128q0 95 -31.5 129t-116.5 34q-84 0 -115 -34t-31 -129zM415 973q0 -94 31 -128t115 -34q85 0 116.5 34t31.5 128t-31.5 128t-116.5 34q-84 0 -115 -34t-31 -128z" />
<glyph unicode="C" horiz-adv-x="863" vert-adv-y="0" d="M116 422v522q0 14 3.5 18.5t13.5 17.5l157 203l179 169q11 9 18 11t23 2h253q26 0 25 -26v-163q0 -8 -1.5 -17t-10.5 -15l-192 -132l-126 -162v-335l128 -162l190 -131q8 -5 10 -12t2 -15v-169q0 -26 -25 -26h-253q-24 0 -41 13l-167 153l-169 220q-11 14 -14 18t-3 18z " />
<glyph unicode="D" horiz-adv-x="1144" vert-adv-y="0" d="M116 26v1313q0 26 25 26h625q25 0 41 -16l205 -205q17 -17 17 -41v-840q0 -25 -17 -41l-205 -205q-16 -17 -41 -17h-625q-26 0 -25 26zM458 273h187q43 0 43 58v703q0 58 -43 59h-187v-820z" />
<glyph unicode="E" horiz-adv-x="1010" vert-adv-y="0" d="M123 26v1313q0 26 25 26h714q26 0 26 -26v-221q0 -26 -26 -25h-398v-291h363q26 0 26 -26v-187q0 -26 -26 -26h-363v-290h398q26 0 26 -25v-222q0 -26 -26 -26h-714q-26 0 -25 26z" />
<glyph unicode="F" horiz-adv-x="916" vert-adv-y="0" d="M123 26v1313q0 26 25 26h702q26 0 26 -26v-221q0 -26 -26 -25h-386v-342h335q26 0 25 -26v-221q0 -26 -25 -26h-335v-452q0 -26 -26 -26h-290q-26 0 -25 26z" />
<glyph unicode="G" horiz-adv-x="1126" vert-adv-y="0" d="M123 263v840q0 24 17 41l205 205q16 16 41 16h605q26 0 26 -26v-221q0 -26 -26 -25h-492q-14 0 -24.5 -10.5t-10.5 -24.5v-749q0 -14 10 -24.5t25 -10.5h221v274h-131q-26 0 -26 25v221q0 26 26 25h420q26 0 25 -25v-531q0 -25 -17 -41l-205 -205q-16 -17 -41 -17h-385 q-25 0 -41 17l-205 205q-17 16 -17 41z" />
<glyph unicode="H" horiz-adv-x="1180" vert-adv-y="0" d="M123 26v1313q0 26 25 26h290q26 0 26 -26v-486h253v486q0 26 25 26h290q26 0 26 -26v-1313q0 -26 -26 -26h-290q-26 0 -25 26v555h-253v-555q0 -26 -26 -26h-290q-26 0 -25 26z" />
<glyph unicode="I" horiz-adv-x="586" vert-adv-y="0" d="M123 26v1313q0 26 25 26h290q26 0 26 -26v-1313q0 -26 -26 -26h-290q-26 0 -25 26z" />
<glyph unicode="J" horiz-adv-x="678" vert-adv-y="0" d="M41 17q0 19 10 31l152 152q12 11 12 32v1107q0 26 26 26h289q26 0 26 -26v-1250q0 -9 -1.5 -16.5t-9.5 -16.5l-212 -212q-15 -15 -31 -15h-235q-26 0 -26 26v162z" />
<glyph unicode="K" horiz-adv-x="1182" vert-adv-y="0" d="M123 26v1313q0 26 25 26h290q26 0 26 -26v-542h127l67 255l62 300q2 6 9.5 9.5t23.5 3.5h295q26 0 25 -26v-128q0 -11 -3 -21.5t-5 -19.5l-125 -300l-87 -163l89 -162l151 -342q4 -7 6 -15.5t2 -23.5v-138q0 -26 -26 -26h-305q-7 0 -18 2.5t-13 12.5l-75 325l-57 185 h-143v-499q0 -26 -26 -26h-290q-26 0 -25 26z" />
<glyph unicode="L" horiz-adv-x="788" vert-adv-y="0" d="M123 26v1313q0 26 25 26h290q26 0 26 -26v-1066h258q26 0 26 -25v-222q0 -26 -26 -26h-574q-26 0 -25 26z" />
<glyph unicode="M" horiz-adv-x="1645" vert-adv-y="0" d="M123 26v1111q0 24 17 41l170 171q17 16 41 16h235q24 0 41 -16l172 -173h48l172 173q17 16 41 16h233q25 0 41 -16l171 -171q17 -17 18 -41v-1111q0 -26 -26 -26h-291q-26 0 -25 26v1067h-188v-1067q0 -26 -25 -26h-290q-26 0 -26 26v1067h-188v-1067q0 -26 -26 -26h-290 q-26 0 -25 26z" />
<glyph unicode="N" horiz-adv-x="1116" vert-adv-y="0" d="M123 26v1313q0 26 25 26h582q25 0 41 -16l205 -205q17 -17 17 -41v-1077q0 -26 -25 -26h-290q-26 0 -26 26v1067h-188v-1067q0 -26 -26 -26h-290q-26 0 -25 26z" />
<glyph unicode="O" horiz-adv-x="1174" vert-adv-y="0" d="M123 263v840q0 24 17 41l205 205q17 16 41 16h402q25 0 41 -16l205 -205q17 -17 18 -41v-840q0 -25 -18 -41l-205 -205q-16 -17 -41 -17h-402q-24 0 -41 17l-205 205q-17 16 -17 41zM465 331q0 -58 42 -58h161q43 0 43 58v703q0 58 -43 59h-161q-42 0 -42 -59v-703z" />
<glyph unicode="P" horiz-adv-x="1020" vert-adv-y="0" d="M123 26v1313q0 26 25 26h567q25 0 41 -16l205 -205q17 -17 17 -41v-353q0 -25 -17 -41l-205 -205q-16 -17 -41 -18h-251v-460q0 -26 -26 -26h-290q-26 0 -25 26zM394 927q0 -94 31.5 -128t115.5 -34q85 0 116 34t31 128t-31 128t-116 34q-84 0 -115.5 -34t-31.5 -128z " />
<glyph unicode="Q" horiz-adv-x="1184" vert-adv-y="0" d="M123 263v840q0 24 17 41l205 205q16 16 41 16h413q24 0 41 -16l204 -205q17 -17 18 -41v-840q0 -25 -18 -41l-204 -205q-17 -17 -41 -17h-413q-25 0 -41 17l-205 205q-17 16 -17 41zM469 0h261l45 -131q5 -15 -4.5 -27.5t-25.5 -12.5h-250q-26 0 -26 26v145zM478 331 q0 -58 42 -58h144q43 0 43 58v703q0 58 -43 59h-144q-42 0 -42 -59v-703z" />
<glyph unicode="R" horiz-adv-x="1056" vert-adv-y="0" d="M123 26v1313q0 26 25 26h555q25 0 41 -13l236 -234q11 -10 13.5 -17t2.5 -24v-280q0 -13 -10 -24l-113 -109l-95 -82l113 -150l116 -248q4 -9 6.5 -17.5t2.5 -21.5v-119q0 -26 -26 -26h-270q-23 0 -31 20l-165 480h-77v-474q0 -26 -25 -26h-274q-26 0 -25 26zM413 919 q0 -97 31.5 -132.5t115.5 -35.5q85 0 116 35t31 133t-31 133t-116 35q-84 0 -115.5 -35t-31.5 -133z" />
<glyph unicode="S" horiz-adv-x="814" vert-adv-y="0" d="M92 26v192q0 13 1.5 21.5t11.5 13.5l269 123v182l-264 164q-17 10 -18 31v375q0 16 2 24t16 17l269 183q10 6 19 9.5t22 3.5h276q26 0 26 -26v-174q0 -23 -15 -30l-269 -111v-189l269 -154q15 -7 15 -33v-445q0 -8 -2.5 -17.5t-10.5 -13.5l-322 -160q-6 -3 -14.5 -7.5 t-17.5 -4.5h-237q-26 0 -26 26z" />
<glyph unicode="T" horiz-adv-x="996" vert-adv-y="0" d="M123 1118v221q0 26 25 26h700q26 0 25 -26v-221q0 -26 -25 -25h-179v-1067q0 -26 -26 -26h-290q-26 0 -25 26v1067h-180q-26 0 -25 25z" />
<glyph unicode="U" horiz-adv-x="1116" vert-adv-y="0" d="M123 263v1076q0 26 25 26h290q26 0 26 -26v-1045q0 -20 20 -21h168v1066q0 26 26 26h290q26 0 25 -26v-1313q0 -26 -25 -26h-582q-25 0 -41 17l-205 205q-17 16 -17 41z" />
<glyph unicode="V" horiz-adv-x="1157" vert-adv-y="0" d="M123 263v1076q0 26 25 26h290q26 0 26 -26v-1065h229v1065q0 26 26 26h290q26 0 25 -26v-1076q0 -25 -17 -41l-205 -205q-16 -17 -41 -17h-385q-25 0 -41 17l-205 205q-17 16 -17 41z" />
<glyph unicode="W" horiz-adv-x="1727" vert-adv-y="0" d="M123 263v1076q0 26 25 26h290q26 0 26 -26v-1065h229v1065q0 26 26 26h290q26 0 25 -26v-1065h229v1065q0 26 25 26h291q26 0 26 -26v-1076q0 -25 -18 -41l-205 -205q-17 -17 -41 -17h-240q-24 0 -41 17l-172 172h-48l-172 -172q-17 -17 -41 -17h-241q-25 0 -41 17 l-205 205q-17 16 -17 41z" />
<glyph unicode="X" horiz-adv-x="1157" vert-adv-y="0" d="M123 884v455q0 26 25 26h290q26 0 26 -26v-501h229v501q0 26 26 26h290q26 0 25 -26v-455q0 -8 -1 -15.5t-9 -15.5l-136 -136v-36l133 -133q8 -7 9 -14.5t1 -16.5v-491q0 -26 -25 -26h-291q-26 0 -26 26v539h-221v-539q0 -26 -26 -26h-290q-26 0 -26 26v491q0 9 1.5 16.5 t8.5 14.5l133 133v36l-136 136q-7 8 -8.5 15.5t-1.5 15.5z" />
<glyph unicode="Y" horiz-adv-x="1075" vert-adv-y="0" d="M82 729v610q0 26 26 26h289q26 0 26 -26v-619h229v619q0 26 26 26h290q26 0 25 -26v-610q0 -9 -1 -15.5t-9 -15.5l-273 -273v-399q0 -26 -26 -26h-292q-26 0 -25 26v399l-275 273q-7 8 -8.5 15t-1.5 16z" />
<glyph unicode="Z" horiz-adv-x="846" vert-adv-y="0" d="M65 269l347 816l-10 -33v59l11 -18h-309q-26 0 -25 25v221q0 26 25 26h497q20 0 31 -15l146 -206q12 -15 3 -36l-351 -823l8 58v-97l-16 27h322q26 0 26 -25v-222q0 -26 -26 -26h-517q-22 0 -30 17l-128 216q-11 18 -4 36z" />
<glyph unicode="[" horiz-adv-x="719" vert-adv-y="0" d="M43 -401v2116q0 26 26 26h583q26 0 26 -26v-136q0 -26 -26 -26h-288v-1792h288q26 0 26 -25v-137q0 -26 -26 -26h-583q-26 0 -26 26z" />
<glyph unicode="\" horiz-adv-x="800" vert-adv-y="0" d="M45 1508q-7 28 22 28h261q23 0 27 -24l402 -1655q8 -28 -23 -28h-261q-22 0 -28 25z" />
<glyph unicode="]" horiz-adv-x="719" vert-adv-y="0" d="M42 -264q0 26 26 25h288v1792h-288q-26 0 -26 26v136q0 26 26 26h583q26 0 26 -26v-2116q0 -26 -26 -26h-583q-26 0 -26 26v137z" />
<glyph unicode="^" horiz-adv-x="852" vert-adv-y="0" d="M59 862v63q0 25 3 34.5t12 20.5l261 363q12 16 18 19t23 3h67q17 0 23 -3t18 -19l296 -363q10 -11 12 -20t2 -35v-63q0 -36 -26 -36h-166q-23 0 -32 17l-135 232h-32l-119 -232q-7 -12 -11.5 -14.5t-21.5 -2.5h-166q-26 0 -26 36z" />
<glyph unicode="_" horiz-adv-x="921" vert-adv-y="0" d="M43 -26q0 26 26 26h784q26 0 26 -26v-33q0 -26 -26 -26h-784q-26 0 -26 26v33z" />
<glyph unicode="`" horiz-adv-x="498" vert-adv-y="0" d="M44 1579l51 131q11 28 35 15l310 -189q24 -14 13 -36l-43 -77q-11 -20 -33 -12l-321 133q-22 8 -12 35z" />
<glyph unicode="a" vert-adv-y="0" d="M116 263v600q0 25 17 41l205 205q17 17 41 17h548q26 0 25 -25v-1075q0 -26 -25 -26h-213q-13 0 -20 5t-15 12l-51 52l-51 -52q-16 -17 -41 -17h-157q-24 0 -41 17l-205 205q-17 16 -17 41zM440 299q0 -34 12.5 -47t46.5 -13h71q33 0 45.5 13t12.5 47v589h-129 q-34 0 -46.5 -13.5t-12.5 -47.5v-528z" />
<glyph unicode="b" horiz-adv-x="1075" vert-adv-y="0" d="M123 26v1313q0 26 25 26h274q26 0 25 -26v-281l52 51q16 17 41 17h156q24 0 41 -17l205 -205q17 -16 17 -41v-600q0 -25 -17 -41l-205 -205q-17 -17 -41 -17h-548q-26 0 -25 26zM447 239h130q34 0 46 13t12 47v528q0 34 -12.5 47.5t-45.5 13.5h-72q-33 0 -45.5 -13.5 t-12.5 -47.5v-588z" />
<glyph unicode="c" horiz-adv-x="740" vert-adv-y="0" d="M116 348v430q0 15 4 20.5t13 18.5l105 174l177 122q9 6 18 9.5t23 3.5h177q26 0 25 -25v-192q0 -8 -1.5 -17t-9.5 -14l-117 -59l-90 -118v-273l96 -109l111 -70q10 -6 10.5 -15t0.5 -17v-191q0 -26 -25 -26h-177q-20 0 -41 13l-167 113l-115 184q-7 13 -12 18t-5 20z" />
<glyph unicode="d" vert-adv-y="0" d="M116 263v600q0 25 17 41l205 205q17 17 41 17h157q25 0 41 -17l51 -51v281q0 26 25 26h274q26 0 25 -26v-1313q0 -26 -25 -26h-213q-13 0 -20 5t-15 12l-51 52l-51 -52q-16 -17 -41 -17h-157q-24 0 -41 17l-205 205q-17 16 -17 41zM440 299q0 -34 12.5 -47t46.5 -13h71 q33 0 45.5 13t12.5 47v589h-129q-34 0 -46.5 -13.5t-12.5 -47.5v-528z" />
<glyph unicode="e" horiz-adv-x="1060" vert-adv-y="0" d="M116 182v681q0 25 17 41l205 205q17 17 41 17h328q24 0 41 -17l204 -205q17 -16 18 -41v-420h-550l-7 -136l145 -48l261 -18q17 -3 18 -24v-191q0 -26 -26 -26h-229q-10 0 -22 3t-22 5l-183 45l-209 70q-31 10 -30 59zM432 744q0 -65 29.5 -102.5t79.5 -37.5h19 q50 0 80.5 38t30.5 102v21q0 63 -30.5 101t-80.5 38h-20q-49 0 -78.5 -38t-29.5 -101v-21z" />
<glyph unicode="f" horiz-adv-x="719" vert-adv-y="0" d="M61 666v187q0 26 26 26h546q26 0 25 -26v-187q0 -26 -25 -26h-546q-26 0 -26 26zM151 26v1077q0 24 16 41l205 205q17 16 41 16h220q26 0 25 -26v-238q0 -26 -25 -26h-159v-1049q0 -26 -25 -26h-273q-26 0 -25 26z" />
<glyph unicode="g" vert-adv-y="0" d="M116 294v569q0 25 17 41l205 205q17 17 41 17h548q26 0 25 -25v-1231q0 -28 -17 -41l-136 -87l-172 -72q-15 -6 -23 -8.5t-25 -2.5h-167q-26 0 -26 26v159q0 20 15 23l150 38l106 56q15 8 16 32v168l-96 -89q-17 -17 -41 -18l-175 -6q-24 0 -40 17l-188 188 q-17 16 -17 41zM440 330q0 -34 12.5 -47.5t46.5 -13.5h71q33 0 45.5 13.5t12.5 47.5v558h-129q-34 0 -46.5 -13.5t-12.5 -47.5v-497z" />
<glyph unicode="h" horiz-adv-x="1075" vert-adv-y="0" d="M123 26v1313q0 26 25 26h274q26 0 25 -26v-213h249q24 0 41 -17l205 -205q17 -16 17 -41v-837q0 -26 -25 -26h-274q-26 0 -25 26v801q0 43 -43 43h-145v-844q0 -26 -25 -26h-274q-26 0 -25 26z" />
<glyph unicode="i" horiz-adv-x="562" vert-adv-y="0" d="M123 26v1075q0 26 25 25h273q26 0 25 -25v-1075q0 -26 -25 -26h-273q-26 0 -25 26zM123 1232v130q0 20 20 20h285q18 0 18 -20v-130q0 -20 -18 -21h-285q-20 0 -20 21z" />
<glyph unicode="j" horiz-adv-x="545" vert-adv-y="0" d="M-61 -156q0 18 15 23l82 29l56 63q9 9 11 16.5t2 17.5v1108q0 26 26 25h273q26 0 26 -25v-1178q0 -26 -17 -44l-121 -132l-130 -73q-26 -15 -51 -15h-149q-24 0 -23 26v159zM105 1232v130q0 20 21 20h285q18 0 18 -20v-130q0 -20 -18 -21h-285q-20 0 -21 21z" />
<glyph unicode="k" horiz-adv-x="1046" vert-adv-y="0" d="M123 26v1313q0 26 25 26h274q26 0 25 -26v-1313q0 -26 -25 -26h-274q-26 0 -25 26zM447 479v246h96l117 384q2 8 10 11.5t21 3.5h259q26 0 26 -25v-109q0 -14 -2 -22.5t-6 -17.5l-152 -349v-35l160 -392q5 -11 7 -20t2 -19v-109q0 -26 -26 -26h-268q-13 0 -20.5 4 t-10.5 11l-117 464h-96z" />
<glyph unicode="l" horiz-adv-x="538" vert-adv-y="0" d="M111 26v1313q0 26 25 26h274q26 0 25 -26v-1313q0 -26 -25 -26h-274q-26 0 -25 26z" />
<glyph unicode="m" horiz-adv-x="1587" vert-adv-y="0" d="M123 26v1075q0 26 25 25h466q24 0 41 -17l126 -126h38l126 126q17 17 41 17h222q24 0 41 -17l205 -205q17 -16 17 -41v-837q0 -26 -25 -26h-274q-26 0 -25 26v801q0 43 -43 43h-145v-844q0 -26 -25 -26h-274q-26 0 -25 26v801q0 43 -43 43h-145v-844q0 -26 -25 -26h-274 q-26 0 -25 26z" />
<glyph unicode="n" horiz-adv-x="1075" vert-adv-y="0" d="M123 26v1075q0 26 25 25h548q24 0 41 -17l205 -205q17 -16 17 -41v-837q0 -26 -25 -26h-274q-26 0 -25 26v796q0 48 -48 48h-140v-844q0 -26 -25 -26h-274q-26 0 -25 26z" />
<glyph unicode="o" vert-adv-y="0" d="M116 263v600q0 25 17 41l205 205q17 17 41 17h310q25 0 41 -17l205 -205q17 -16 17 -41v-600q0 -25 -17 -41l-205 -205q-16 -17 -41 -17h-310q-24 0 -41 17l-205 205q-17 16 -17 41zM440 299q0 -34 12.5 -47t46.5 -13h71q33 0 45.5 13t12.5 47v528q0 34 -12.5 47.5 t-45.5 13.5h-71q-34 0 -46.5 -13.5t-12.5 -47.5v-528z" />
<glyph unicode="p" horiz-adv-x="1075" vert-adv-y="0" d="M123 -282v1383q0 26 25 25h212q18 0 36 -17l51 -51l52 51q16 17 41 17h156q24 0 41 -17l205 -205q17 -16 17 -41v-600q0 -25 -17 -41l-205 -205q-17 -17 -41 -17h-156q-25 0 -41 17l-52 52v-351q0 -26 -25 -25h-274q-26 0 -25 25zM447 239h130q34 0 46 13t12 47v528 q0 34 -12.5 47.5t-45.5 13.5h-72q-33 0 -45.5 -13.5t-12.5 -47.5v-588z" />
<glyph unicode="q" horiz-adv-x="1075" vert-adv-y="0" d="M123 263v600q0 25 17 41l205 205q16 17 41 17h548q26 0 25 -25v-1383q0 -26 -25 -25h-274q-26 0 -25 25v351l-51 -52q-17 -17 -41 -17h-157q-25 0 -41 17l-205 205q-17 16 -17 41zM447 299q0 -34 12.5 -47t45.5 -13h72q34 0 46 13t12 47v589h-130q-33 0 -45.5 -13.5 t-12.5 -47.5v-528z" />
<glyph unicode="r" horiz-adv-x="714" vert-adv-y="0" d="M123 26v1075q0 26 25 25h156q19 0 34 -17l100 -116l112 121q11 12 29 12h110q26 0 26 -25v-220q0 -16 -2 -22t-12 -12l-254 -188v-633q0 -26 -25 -26h-274q-26 0 -25 26z" />
<glyph unicode="s" horiz-adv-x="739" vert-adv-y="0" d="M91 26v165q0 24 15 31l209 124v107l-209 112q-15 9 -15 32v327q0 11 3.5 18t10.5 12l219 160q11 8 18 10t14 2h249q26 0 26 -25v-161q0 -17 -2.5 -23.5t-11.5 -10.5l-193 -104v-119l207 -102q17 -7 17 -31v-314q0 -26 -17 -41l-218 -182q-16 -13 -41 -13h-255 q-26 0 -26 26z" />
<glyph unicode="t" horiz-adv-x="640" vert-adv-y="0" d="M61 913v188q0 26 26 25h43v128q0 26 26 26h272q26 0 26 -26v-128h99q26 0 26 -25v-188q0 -26 -26 -25h-99v-547q0 -19 12 -32l100 -101q10 -9 11 -31v-151q0 -26 -26 -26h-193q-24 0 -41 17l-171 170q-16 17 -16 41v660h-43q-26 0 -26 25z" />
<glyph unicode="u" horiz-adv-x="1075" vert-adv-y="0" d="M123 263v838q0 26 25 25h274q26 0 25 -25v-797q0 -48 48 -48h140v845q0 26 25 25h274q26 0 25 -25v-1075q0 -26 -25 -26h-548q-25 0 -41 17l-205 205q-17 16 -17 41z" />
<glyph unicode="v" vert-adv-y="0" d="M116 263v838q0 26 25 25h274q26 0 25 -25v-845h188v845q0 26 25 25h274q26 0 25 -25v-838q0 -25 -17 -41l-205 -205q-16 -17 -41 -17h-310q-24 0 -41 17l-205 205q-17 16 -17 41z" />
<glyph unicode="w" horiz-adv-x="1546" vert-adv-y="0" d="M116 263v838q0 26 25 25h274q26 0 25 -25v-845h171v845q0 26 26 25h272q26 0 26 -25v-845h171v845q0 26 26 25h273q26 0 26 -25v-838q0 -25 -18 -41l-205 -205q-17 -17 -41 -17h-233q-25 0 -41 17l-138 139h37l-139 -139q-16 -17 -41 -17h-233q-24 0 -41 17l-205 205 q-17 16 -17 41z" />
<glyph unicode="x" horiz-adv-x="1070" vert-adv-y="0" d="M116 729v372q0 26 25 25h274q26 0 25 -25v-403h187v403q0 26 25 25h273q26 0 25 -25v-372q0 -9 -1 -16.5t-9 -14.5l-136 -109v-36l140 -108q8 -5 9 -13t1 -17v-389q0 -26 -25 -26h-274q-26 0 -25 26v419h-187v-419q0 -26 -25 -26h-273q-26 0 -25 26v389q0 9 1.5 16.5 t8.5 13.5l133 108v36l-137 109q-7 6 -8.5 14t-1.5 17z" />
<glyph unicode="y" horiz-adv-x="1075" vert-adv-y="0" d="M123 294v807q0 26 25 25h274q26 0 25 -25v-771q0 -34 12.5 -47.5t45.5 -13.5h130v832q0 26 25 25h274q26 0 25 -25v-1231q0 -31 -17 -41l-136 -87l-173 -72q-15 -6 -23 -8.5t-24 -2.5h-168q-26 0 -26 26v159q0 19 16 23l150 38l106 56q15 8 15 32v168l-95 -89 q-17 -17 -41 -18l-174 -6q-24 0 -41 17l-188 188q-17 16 -17 41z" />
<glyph unicode="z" horiz-adv-x="781" vert-adv-y="0" d="M31 896v205q0 26 25 25h504q16 0 26 -4t15 -13l119 -205q5 -8 8.5 -17t3.5 -19q0 -17 -15 -41l-330 -511v-60h338q26 0 26 -26v-204q0 -26 -26 -26h-503q-16 0 -26 4t-15 13l-120 205q-12 23 -12 34q0 16 12 36l328 516v62h-333q-26 0 -25 26z" />
<glyph unicode="{" horiz-adv-x="873" vert-adv-y="0" d="M67 522v270q0 23 22 22h269q23 0 23 -22v-270q0 -23 -23 -22h-269q-23 0 -22 22zM197 -65v267q0 18 13 31l307 320v-566l259 -243q8 -7 10 -15.5t2 -17.5v-112q0 -26 -25 -26h-202q-27 0 -41 14l-307 308q-11 11 -13.5 17.5t-2.5 22.5zM197 1113v266q0 16 2.5 23t13.5 18 l307 307q14 13 41 14h202q26 0 25 -26v-112q0 -9 -2 -17t-10 -16l-259 -242v-567l-307 319q-13 13 -13 33z" />
<glyph unicode="|" horiz-adv-x="402" vert-adv-y="0" d="M82 -230v1792q0 26 26 25h187q26 0 26 -25v-1792q0 -26 -26 -26h-187q-26 0 -26 26z" />
<glyph unicode="}" horiz-adv-x="873" vert-adv-y="0" d="M85 -289q0 9 2.5 17.5t9.5 15.5l259 243v566l308 -320q13 -13 13 -31v-267q0 -16 -2.5 -22.5t-14.5 -17.5l-307 -308q-14 -14 -41 -14h-201q-26 0 -26 26v112zM85 1603v112q0 26 26 26h201q27 0 41 -14l307 -307q11 -11 14 -17.5t3 -23.5v-266q0 -19 -13 -33l-308 -319 v567l-259 242q-7 8 -9.5 15.5t-2.5 17.5zM493 522v270q0 23 22 22h269q23 0 23 -22v-270q0 -22 -23 -22h-269q-23 0 -22 22z" />
<glyph unicode="~" horiz-adv-x="1206" vert-adv-y="0" d="M43.5 511q-4.5 7 2.5 18l197 313q5 8 11.5 14t19.5 6h337q24 0 36 -25l62 -143h103l53 149q7 19 29 19h255q10 0 14 -7t-3 -18l-195 -313q-5 -9 -12 -14.5t-21 -5.5h-336q-26 0 -36 25l-61 140h-105l-53 -147q-5 -18 -29 -18h-254q-10 0 -14.5 7z" />
<glyph unicode="&#xa0;" horiz-adv-x="325" vert-adv-y="0" />
<glyph unicode="&#xa1;" horiz-adv-x="596" vert-adv-y="0" d="M82 36l54 793q3 25 26 25h273q23 0 26 -25l54 -793q3 -27 -26 -27h-381q-29 0 -26 27zM109 1013v325q0 28 25 28h328q26 0 25 -28v-325q0 -28 -25 -28h-328q-26 0 -25 28z" />
<glyph unicode="&#xa2;" horiz-adv-x="868" vert-adv-y="0" d="M43 294v539q0 17 2.5 23t13.5 17l240 240q13 13 41 13h131v-353l-94 -77v-266l94 -77v-353h-131q-28 0 -41 13l-240 240q-11 11 -13.5 18t-2.5 23zM540 -125v1315q0 26 25 25h34q26 0 26 -25v-1315q0 -26 -26 -26h-34q-26 0 -25 26zM693 0v341h108q26 0 25 -26v-289 q0 -26 -25 -26h-108zM693 783v341h108q26 0 25 -25v-290q0 -26 -25 -26h-108z" />
<glyph unicode="&#xa3;" horiz-adv-x="846" vert-adv-y="0" d="M43 26v222q0 26 26 25h93v298h342v-298h274q26 0 26 -25v-222q0 -26 -26 -26h-709q-26 0 -26 26zM43 666v33q0 26 26 26h709q26 0 26 -26v-33q0 -26 -26 -26h-709q-26 0 -26 26zM162 794v278q0 16 4 22.5t13 18.5l188 239q8 11 17.5 12t23.5 1h370q26 0 26 -26v-221 q0 -26 -26 -25h-274v-299h-342z" />
<glyph unicode="&#xa4;" horiz-adv-x="1083" vert-adv-y="0" d="M77 404l172 173q-32 45 -49.5 100.5t-17.5 118.5q0 128 71 226l-176 178l85 87l178 -178q42 30 92.5 46.5t107.5 16.5q56 0 108 -15.5t96 -43.5l178 175l85 -87l-172 -172q33 -44 52 -100t19 -118q0 -65 -20.5 -123t-56.5 -106l175 -174l-85 -87l-177 176 q-44 -29 -95 -46.5t-107 -17.5t-107 16t-95 43l-176 -175zM292 797q0 -72 33 -131t89.5 -93.5t125.5 -34.5q127 0 187.5 77.5t60.5 185.5q0 72 -34 132.5t-91.5 97.5t-126.5 37q-80 0 -134.5 -38.5t-82 -100t-27.5 -132.5z" />
<glyph unicode="&#xa5;" horiz-adv-x="972" vert-adv-y="0" d="M31 719v620q0 26 25 26h290q26 0 26 -26v-600h229v600q0 26 26 26h289q26 0 26 -26v-620q0 -9 -1 -16t-9 -15l-141 -142h-607l-143 142q-7 8 -8.5 15t-1.5 16zM113 282v33q0 26 25 26h697q26 0 25 -26v-33q0 -26 -25 -26h-697q-26 0 -25 26zM113 418v35q0 26 25 25h697 q26 0 25 -25v-35q0 -26 -25 -26h-697q-26 0 -25 26zM315 26v161h343v-161q0 -26 -25 -26h-292q-26 0 -26 26z" />
<glyph unicode="&#xa6;" horiz-adv-x="402" vert-adv-y="0" d="M82 -230v750h239v-750q0 -26 -26 -26h-187q-26 0 -26 26zM82 811v751q0 26 26 25h187q26 0 26 -25v-751h-239z" />
<glyph unicode="&#xa7;" horiz-adv-x="972" vert-adv-y="0" d="M92 -10q0 23 18 30l269 108v53l-269 113q-17 9 -18 32v338q0 27 24 39l263 140v36l-269 78q-17 5 -18 33v172q0 24 16 31l299 161q20 11 35 11h410q29 0 29 -26v-143q0 -28 -16 -34l-249 -104v-51l246 -103q18 -8 19 -31v-390q0 -27 -16 -34l-249 -139v-36l246 -51 q18 -5 19 -30v-124q0 -19 -3.5 -26t-15.5 -15l-278 -182q-19 -13 -48 -13h-415q-29 0 -29 26v131zM340 577q0 -93 31 -127.5t115 -34.5q85 0 116 34t31 128t-31 128t-116 34q-84 0 -115 -34t-31 -128z" />
<glyph unicode="&#xa8;" horiz-adv-x="735" vert-adv-y="0" d="M43 1473v256q0 23 18 22h258q20 0 21 -22v-256q0 -20 -21 -21h-258q-18 0 -18 21zM396 1473v256q0 23 19 22h258q20 0 20 -22v-256q0 -20 -20 -21h-258q-18 0 -19 21z" />
<glyph unicode="&#xa9;" horiz-adv-x="1195" vert-adv-y="0" d="M43 304v756q0 17 4 28t14 20l239 237q24 20 48 20h499q26 0 47 -20l240 -237q10 -9 14 -20t4 -28v-756q0 -16 -4 -27.5t-14 -20.5l-240 -238q-12 -11 -22.5 -15.5t-24.5 -4.5h-499q-25 0 -48 20l-239 238q-10 9 -14 20.5t-4 27.5zM128 346q0 -24 17 -41l205 -205 q16 -16 41 -16h413q24 0 41 16l205 205q17 17 17 41v671q0 25 -17 41l-205 205q-17 17 -41 17h-413q-25 0 -41 -17l-205 -205q-17 -16 -17 -41v-671zM290 524v319q0 19 3 25t14 16l274 239q13 13 41 14h170q26 0 25 -26v-140q0 -11 -2 -18t-9 -14l-268 -232v-47l268 -232 q7 -7 9 -13.5t2 -18.5v-140q0 -26 -25 -26h-170q-28 0 -41 14l-274 239q-11 9 -14 16t-3 25z" />
<glyph unicode="&#xaa;" horiz-adv-x="860" vert-adv-y="0" d="M116 821v451q0 14 14 31l154 153q11 11 30 11h411q19 0 19 -18v-807q0 -19 -19 -19h-160q-16 0 -25 14l-40 37l-37 -37q-13 -14 -31 -14h-118q-19 0 -30 14l-154 154q-14 12 -14 30zM360 847q0 -45 42 -45h56q42 0 42 45v441h-98q-42 0 -42 -44v-397z" />
<glyph unicode="&#xab;" horiz-adv-x="1078" vert-adv-y="0" d="M-41 529v68q0 17 3 23.5t14 17.5l360 376q11 10 19 11.5t22 1.5h35q26 0 25 -26v-159q0 -9 -1.5 -16.5t-10.5 -16.5l-233 -227v-36l233 -229q9 -9 10.5 -16t1.5 -16v-160q0 -26 -25 -26h-35q-13 0 -21.5 1.5t-19.5 12.5l-360 375q-11 11 -14 18t-3 23zM518 529v68 q0 17 3 23.5t14 17.5l360 376q11 10 19 11.5t22 1.5h35q26 0 25 -26v-159q0 -9 -1.5 -16.5t-10.5 -16.5l-233 -227v-36l233 -229q9 -9 10.5 -16t1.5 -16v-160q0 -26 -25 -26h-35q-13 0 -21.5 1.5t-19.5 12.5l-360 375q-11 11 -14 18t-3 23z" />
<glyph unicode="&#xac;" horiz-adv-x="727" vert-adv-y="0" d="M43 657v188q0 26 26 25h589q26 0 26 -25v-474q0 -26 -26 -26h-187q-26 0 -26 26v261h-376q-26 0 -26 25z" />
<glyph unicode="&#xad;" horiz-adv-x="614" vert-adv-y="0" d="M20 546v273q0 26 26 26h522q26 0 26 -26v-273q0 -26 -26 -26h-522q-26 0 -26 26z" />
<glyph unicode="&#xae;" horiz-adv-x="1195" vert-adv-y="0" d="M43 304v756q0 14 3.5 26t14.5 22l239 237q22 20 48 20h499q26 0 47 -20l240 -237q11 -10 14.5 -22t3.5 -26v-756q0 -14 -3.5 -26t-14.5 -22l-240 -238q-11 -10 -21.5 -15t-25.5 -5h-499q-25 0 -48 20l-239 238q-11 10 -14.5 22t-3.5 26zM128 346q0 -24 17 -41l205 -205 q16 -16 41 -16h413q24 0 41 16l205 205q17 17 17 41v671q0 25 -17 41l-205 205q-17 17 -41 17h-413q-25 0 -41 -17l-205 -205q-17 -16 -17 -41v-671zM292 279v839q0 18 17 19h418q9 0 15 -2.5t13 -8.5l156 -155q12 -12 13 -27v-102q0 -16 -2 -22t-11 -14l-130 -130v-24 l148 -217q6 -10 6 -27v-129q0 -19 -16 -20h-184q-14 0 -20 15l-92 240h-80v-235q0 -19 -18 -20h-216q-17 0 -17 20zM473 845q0 -73 21.5 -99.5t86.5 -26.5q66 0 87 26.5t21 99.5t-21.5 99.5t-86.5 26.5t-86.5 -26.5t-21.5 -99.5z" />
<glyph unicode="&#xaf;" horiz-adv-x="496" vert-adv-y="0" d="M43 1478v157q0 26 26 26h359q26 0 26 -26v-157q0 -26 -26 -26h-359q-26 0 -26 26z" />
<glyph unicode="&#xb0;" horiz-adv-x="494" vert-adv-y="0" d="M43 1160q0 90 57 147.5t148 57.5t148 -57.5t57 -147.5q0 -89 -57 -147t-148 -58t-148 58t-57 147zM128 1160q0 -52 33.5 -86.5t86.5 -34.5q54 0 86.5 34.5t32.5 86.5q0 53 -32.5 87.5t-86.5 34.5q-53 0 -86.5 -34.5t-33.5 -87.5z" />
<glyph unicode="&#xb1;" horiz-adv-x="727" vert-adv-y="0" d="M43 26v187q0 26 26 26h589q26 0 26 -26v-187q0 -26 -26 -26h-589q-26 0 -26 26zM43 652v188q0 26 26 25h589q26 0 26 -25v-188q0 -26 -26 -25h-589q-26 0 -26 25zM244 451v590q0 26 25 26h189q26 0 25 -26v-590q0 -26 -25 -26h-189q-26 0 -25 26z" />
<glyph unicode="&#xb2;" horiz-adv-x="561" vert-adv-y="0" d="M49 543v219q0 6 2.5 10.5t6.5 10.5l214 260v138l-214 83q-9 3 -9 20v125q0 17 17 17h171q9 0 14.5 -2.5t11.5 -6.5l223 -97q9 -4 10.5 -10t1.5 -18v-292q0 -6 -3 -9.5l-9 -10.5l-211 -257v-28h242q16 0 17 -16v-136q0 -17 -17 -18h-450q-17 0 -18 18z" />
<glyph unicode="&#xb3;" horiz-adv-x="688" vert-adv-y="0" d="M81 543v135q0 16 17 16h284v203h-228q-16 0 -17 17v136q0 16 17 16h228v180h-284q-17 0 -17 18v145q0 17 17 17h336q15 0 27 -11l135 -135q11 -11 11 -27v-135q0 -14 -7 -20l-88 -101v-43l88 -100q7 -6 7 -19v-136q0 -16 -11 -27l-135 -135q-11 -11 -27 -12h-336 q-17 0 -17 18z" />
<glyph unicode="&#xb4;" horiz-adv-x="498" vert-adv-y="0" d="M46 1500q-12 23 12 36l311 189q24 12 33 -15l52 -131q9 -27 -12 -35l-321 -133q-20 -8 -32 12z" />
<glyph unicode="&#xb5;" horiz-adv-x="1075" vert-adv-y="0" d="M123 -282v1383q0 26 25 25h274q26 0 25 -25v-802q0 -43 42 -43h146v845q0 26 25 25h274q26 0 25 -25v-1075q0 -26 -25 -26h-394q-25 0 -41 17l-52 52v-351q0 -26 -25 -25h-274q-26 0 -25 25z" />
<glyph unicode="&#xb6;" horiz-adv-x="1044" vert-adv-y="0" d="M43 737v335q0 16 2.5 23t13.5 18l240 239q12 13 41 13h380q26 0 25 -26v-1740q0 -26 -25 -26h-119q-26 0 -26 26v844h-235q-28 0 -41 15l-240 238q-11 11 -13.5 18t-2.5 23zM831 -401v1740q0 26 26 26h119q26 0 25 -26v-1740q0 -26 -25 -26h-119q-26 0 -26 26z" />
<glyph unicode="&#xb7;" horiz-adv-x="542" vert-adv-y="0" d="M82 478v325q0 28 26 28h327q26 0 26 -28v-325q0 -28 -26 -28h-327q-26 0 -26 28z" />
<glyph unicode="&#xb8;" horiz-adv-x="340" vert-adv-y="0" d="M43 -274q0 20 26 20h115v83h-90q-26 0 -25 26v66l52 79h138l-52 -79h66q26 0 26 -25v-162q0 -18 -14 -33l-21 -20q-7 -7 -15 -9.5t-17 -2.5h-163q-26 0 -26 22v35z" />
<glyph unicode="&#xb9;" horiz-adv-x="432" vert-adv-y="0" d="M18 1264v145q0 17 18 17h299q16 0 16 -17v-866q0 -17 -16 -18h-192q-17 0 -17 18v707l-90 -4q-17 0 -18 18z" />
<glyph unicode="&#xba;" horiz-adv-x="860" vert-adv-y="0" d="M116 821v451q0 14 14 31l154 153q11 11 30 11h232q19 0 31 -11l153 -153q14 -14 14 -31v-451q0 -19 -14 -30l-153 -154q-11 -14 -31 -14h-232q-19 0 -30 14l-154 154q-14 12 -14 30zM360 847q0 -45 42 -45h56q42 0 42 45v397q0 44 -42 44h-56q-42 0 -42 -44v-397z" />
<glyph unicode="&#xbb;" horiz-adv-x="1201" vert-adv-y="0" d="M82 125v160q0 9 1.5 16t10.5 16l233 229v36l-233 227q-9 9 -10.5 16.5t-1.5 16.5v159q0 26 26 26h34q14 0 22.5 -1.5t18.5 -11.5l360 -376q11 -11 14 -17.5t3 -23.5v-68q0 -16 -3 -22.5t-14 -18.5l-360 -375q-10 -10 -18.5 -12t-22.5 -2h-34q-26 0 -26 26zM641 125v160 q0 9 1.5 16t10.5 16l233 229v36l-233 227q-9 9 -10.5 16.5t-1.5 16.5v159q0 26 26 26h34q14 0 22.5 -1.5t18.5 -11.5l360 -376q11 -11 14 -17.5t3 -23.5v-68q0 -16 -3 -22.5t-14 -18.5l-360 -375q-10 -10 -18.5 -12t-22.5 -2h-34q-26 0 -26 26z" />
<glyph unicode="&#xbc;" horiz-adv-x="1259" vert-adv-y="0" d="M43 1420v147q0 17 16 17h299q17 0 18 -17v-867q0 -17 -18 -17h-191q-16 0 -16 17v707l-92 -4q-16 0 -16 17zM179 94l618 1476h53l-618 -1476h-53zM620 299v585q0 17 16 17h192q17 0 17 -17v-421h147v421q0 17 17 17h191q17 0 17 -17v-867q0 -17 -17 -17h-191 q-17 0 -17 17v265h-356q-16 0 -16 17z" />
<glyph unicode="&#xbd;" horiz-adv-x="1147" vert-adv-y="0" d="M43 1420v147q0 17 16 17h299q17 0 18 -17v-867q0 -17 -18 -17h-191q-16 0 -16 17v707l-92 -4q-16 0 -16 17zM179 94l618 1476h53l-618 -1476h-53zM620 238q0 6 3 10.5t7 9.5l215 261v136l-215 82q-10 4 -10 21v126q0 17 16 17h171q10 0 15.5 -3t12.5 -5l223 -99 q12 -3 13 -28v-290q0 -7 -4 -10.5t-9 -9.5l-212 -258v-27h243q17 0 17 -17v-137q0 -17 -17 -17h-451q-17 0 -17 17z" />
<glyph unicode="&#xbe;" horiz-adv-x="1454" vert-adv-y="0" d="M43 700v135q0 17 16 17h286v203h-229q-16 0 -17 17v135q0 16 17 17h229v179h-286q-16 0 -16 17v147q0 17 16 17h337q15 0 27 -12l135 -134q12 -10 12 -28v-135q0 -10 -7 -21l-89 -98v-45l89 -98q7 -10 7 -21v-135q0 -16 -12 -28l-135 -134q-11 -12 -27 -12h-337 q-16 0 -16 17zM373 94l618 1476h53l-618 -1476h-53zM814 299v585q0 17 16 17h192q17 0 17 -17v-421h147v421q0 17 17 17h191q17 0 17 -17v-867q0 -17 -17 -17h-191q-17 0 -17 17v265h-356q-16 0 -16 17z" />
<glyph unicode="&#xbf;" horiz-adv-x="768" vert-adv-y="0" d="M82 267v317q0 19 17 33l275 253q11 11 33 12h223q26 0 25 -26v-179q0 -11 -5 -17t-13 -12l-217 -135v-73l251 -184q15 -10 15 -31v-199q0 -26 -26 -26h-293q-19 0 -31 10l-239 227q-15 14 -15 30zM287 1004v325q0 28 25 28h328q26 0 26 -28v-325q0 -28 -26 -28h-328 q-26 0 -25 28z" />
<glyph unicode="&#xc0;" horiz-adv-x="1143" vert-adv-y="0" d="M116 26v949q0 13 10 31l243 344q11 15 32 15h339q23 0 33 -15l244 -344q10 -14 10 -31v-949q0 -26 -26 -26h-289q-26 0 -26 26v435h-228v-435q0 -26 -26 -26h-291q-26 0 -25 26zM402 1554l58 122q9 25 28 13l241 -157q18 -12 12 -30l-36 -77q-8 -18 -28 -9l-264 110 q-19 10 -11 28zM412 881q0 -117 33 -158.5t126 -41.5q94 0 127.5 41.5t33.5 158.5t-33 158t-128 41q-93 0 -126 -41.5t-33 -157.5z" />
<glyph unicode="&#xc1;" horiz-adv-x="1143" vert-adv-y="0" d="M116 26v949q0 13 10 31l243 344q11 15 32 15h339q23 0 33 -15l244 -344q10 -14 10 -31v-949q0 -26 -26 -26h-289q-26 0 -26 26v435h-228v-435q0 -26 -26 -26h-291q-26 0 -25 26zM403 1502q-7 18 11 30l242 157q18 11 27 -13l59 -122q8 -17 -12 -28l-264 -110 q-19 -9 -27 9zM412 881q0 -117 33 -158.5t126 -41.5q94 0 127.5 41.5t33.5 158.5t-33 158t-128 41q-93 0 -126 -41.5t-33 -157.5z" />
<glyph unicode="&#xc2;" horiz-adv-x="1143" vert-adv-y="0" d="M116 26v949q0 13 10 31l243 344q11 15 32 15h339q23 0 33 -15l244 -344q10 -14 10 -31v-949q0 -26 -26 -26h-289q-26 0 -26 26v435h-228v-435q0 -26 -26 -26h-291q-26 0 -25 26zM341 1425q-5 8 1 20l91 176q8 17 31 18h210q23 0 31 -18l92 -176q7 -12 1.5 -20t-17.5 -8 h-145q-15 0 -28 20l-27 54l-5 23h-14l-3 -23l-28 -54q-11 -20 -27 -20h-145q-13 0 -18 8zM412 881q0 -117 33 -158.5t126 -41.5q94 0 127.5 41.5t33.5 158.5t-33 158t-128 41q-93 0 -126 -41.5t-33 -157.5z" />
<glyph unicode="&#xc3;" horiz-adv-x="1143" vert-adv-y="0" d="M116 26v949q0 13 10 31l243 344q11 15 32 15h339q23 0 33 -15l244 -344q10 -14 10 -31v-949q0 -26 -26 -26h-289q-26 0 -26 26v435h-228v-435q0 -26 -26 -26h-291q-26 0 -25 26zM354 1444l67 160q11 17 20 17h143q11 0 18 -17l27 -73l27 73q8 17 36 17h82q23 0 13 -28 l-62 -159q-6 -17 -21 -17h-142q-10 0 -16 17l-20 78l-49 -78q-10 -17 -36 -17h-74q-23 0 -13 27zM412 881q0 -117 33 -158.5t126 -41.5q94 0 127.5 41.5t33.5 158.5t-33 158t-128 41q-93 0 -126 -41.5t-33 -157.5z" />
<glyph unicode="&#xc4;" horiz-adv-x="1143" vert-adv-y="0" d="M116 26v949q0 13 10 31l243 344q11 15 32 15h339q23 0 33 -15l244 -344q10 -14 10 -31v-949q0 -26 -26 -26h-289q-26 0 -26 26v435h-228v-435q0 -26 -26 -26h-291q-26 0 -25 26zM253 1471v130q0 20 20 20h244q18 0 19 -20v-130q0 -20 -19 -21h-244q-20 0 -20 21zM412 881 q0 -117 33 -158.5t126 -41.5q94 0 127.5 41.5t33.5 158.5t-33 158t-128 41q-93 0 -126 -41.5t-33 -157.5zM606 1471v130q0 20 21 20h243q18 0 19 -20v-130q0 -20 -19 -21h-243q-20 0 -21 21z" />
<glyph unicode="&#xc5;" horiz-adv-x="1143" vert-adv-y="0" d="M116 26v949q0 13 10 31l243 344q11 15 32 15h339q23 0 33 -15l244 -344q10 -14 10 -31v-949q0 -26 -26 -26h-289q-26 0 -26 26v435h-228v-435q0 -26 -26 -26h-291q-26 0 -25 26zM371 1442v154q0 26 26 25h351q26 0 25 -25v-154q0 -26 -25 -25h-351q-26 0 -26 25zM412 881 q0 -117 33 -158.5t126 -41.5q94 0 127.5 41.5t33.5 158.5t-33 158t-128 41q-93 0 -126 -41.5t-33 -157.5zM497 1521q0 -31 23 -54t54 -23t53 22.5t22 54.5q0 33 -21 54t-54 21q-32 0 -54.5 -22t-22.5 -53z" />
<glyph unicode="&#xc6;" horiz-adv-x="1574" vert-adv-y="0" d="M116 26v949q0 13 10 31l243 344q11 15 32 15h1025q26 0 26 -26v-221q0 -26 -26 -25h-397v-291h364q26 0 25 -26v-187q0 -26 -25 -26h-364v-290h397q26 0 26 -25v-222q0 -26 -26 -26h-714q-26 0 -26 26v435h-228v-435q0 -26 -26 -26h-291q-26 0 -25 26zM412 881 q0 -117 33 -158.5t126 -41.5q94 0 127.5 41.5t33.5 158.5t-33 158t-128 41q-93 0 -126 -41.5t-33 -157.5z" />
<glyph unicode="&#xc7;" horiz-adv-x="863" vert-adv-y="0" d="M116 422v522q0 14 3.5 18.5t13.5 17.5l157 203l179 169q11 9 18 11t23 2h253q26 0 25 -26v-163q0 -8 -1.5 -17t-10.5 -15l-192 -132l-126 -162v-335l128 -162l190 -131q8 -5 10 -12t2 -15v-169q0 -26 -25 -26h-253q-24 0 -41 13l-167 153l-169 220q-11 14 -14 18t-3 18z M509 -274q0 20 26 20h115v83h-90q-26 0 -25 26v66l52 79h138l-52 -79h66q26 0 26 -25v-162q0 -18 -14 -33l-21 -20q-7 -7 -15 -9.5t-17 -2.5h-163q-26 0 -26 22v35z" />
<glyph unicode="&#xc8;" horiz-adv-x="1010" vert-adv-y="0" d="M123 26v1313q0 26 25 26h714q26 0 26 -26v-221q0 -26 -26 -25h-398v-291h363q26 0 26 -26v-187q0 -26 -26 -26h-363v-290h398q26 0 26 -25v-222q0 -26 -26 -26h-714q-26 0 -25 26zM350 1554l58 122q9 25 28 13l241 -157q18 -12 12 -30l-36 -77q-8 -18 -28 -9l-264 110 q-19 10 -11 28z" />
<glyph unicode="&#xc9;" horiz-adv-x="1010" vert-adv-y="0" d="M123 26v1313q0 26 25 26h714q26 0 26 -26v-221q0 -26 -26 -25h-398v-291h363q26 0 26 -26v-187q0 -26 -26 -26h-363v-290h398q26 0 26 -25v-222q0 -26 -26 -26h-714q-26 0 -25 26zM351 1502q-7 18 11 30l242 157q18 11 27 -13l59 -122q8 -17 -12 -28l-264 -110 q-19 -9 -27 9z" />
<glyph unicode="&#xca;" horiz-adv-x="1010" vert-adv-y="0" d="M123 26v1313q0 26 25 26h714q26 0 26 -26v-221q0 -26 -26 -25h-398v-291h363q26 0 26 -26v-187q0 -26 -26 -26h-363v-290h398q26 0 26 -25v-222q0 -26 -26 -26h-714q-26 0 -25 26zM290 1425q-5 8 1 20l91 176q8 17 31 18h210q23 0 31 -18l92 -176q7 -12 1.5 -20t-17.5 -8 h-145q-15 0 -28 20l-27 54l-5 23h-14l-3 -23l-28 -54q-11 -20 -27 -20h-145q-13 0 -18 8z" />
<glyph unicode="&#xcb;" horiz-adv-x="1010" vert-adv-y="0" d="M123 26v1313q0 26 25 26h714q26 0 26 -26v-221q0 -26 -26 -25h-398v-291h363q26 0 26 -26v-187q0 -26 -26 -26h-363v-290h398q26 0 26 -25v-222q0 -26 -26 -26h-714q-26 0 -25 26zM202 1471v130q0 20 20 20h244q18 0 19 -20v-130q0 -20 -19 -21h-244q-20 0 -20 21z M555 1471v130q0 20 21 20h243q18 0 19 -20v-130q0 -20 -19 -21h-243q-20 0 -21 21z" />
<glyph unicode="&#xcc;" horiz-adv-x="586" vert-adv-y="0" d="M123 26v1313q0 26 25 26h290q26 0 26 -26v-1313q0 -26 -26 -26h-290q-26 0 -25 26zM129 1554l58 122q9 25 28 13l241 -157q18 -12 12 -30l-36 -77q-8 -18 -28 -9l-264 110q-19 10 -11 28z" />
<glyph unicode="&#xcd;" horiz-adv-x="586" vert-adv-y="0" d="M123 26v1313q0 26 25 26h290q26 0 26 -26v-1313q0 -26 -26 -26h-290q-26 0 -25 26zM130 1502q-7 18 11 30l242 157q18 11 27 -13l59 -122q8 -17 -12 -28l-264 -110q-19 -9 -27 9z" />
<glyph unicode="&#xce;" horiz-adv-x="586" vert-adv-y="0" d="M69 1425q-5 8 1 20l91 176q8 17 31 18h210q23 0 31 -18l92 -176q7 -12 1.5 -20t-17.5 -8h-145q-15 0 -28 20l-27 54l-5 23h-14l-3 -23l-28 -54q-11 -20 -27 -20h-145q-13 0 -18 8zM123 26v1313q0 26 25 26h290q26 0 26 -26v-1313q0 -26 -26 -26h-290q-26 0 -25 26z" />
<glyph unicode="&#xcf;" horiz-adv-x="586" vert-adv-y="0" d="M-19 1471v130q0 20 20 20h244q18 0 19 -20v-130q0 -20 -19 -21h-244q-20 0 -20 21zM123 26v1313q0 26 25 26h290q26 0 26 -26v-1313q0 -26 -26 -26h-290q-26 0 -25 26zM334 1471v130q0 20 21 20h243q18 0 19 -20v-130q0 -20 -19 -21h-243q-20 0 -21 21z" />
<glyph unicode="&#xd0;" horiz-adv-x="1243" vert-adv-y="0" d="M90 614v137q0 26 26 25h573q26 0 26 -25v-137q0 -26 -26 -25h-573q-26 0 -26 25zM214 26v1313q0 26 26 26h624q25 0 41 -16l205 -205q17 -17 17 -41v-840q0 -25 -17 -41l-205 -205q-16 -17 -41 -17h-624q-26 0 -26 26zM556 273h187q43 0 43 58v703q0 58 -43 59h-187v-820 z" />
<glyph unicode="&#xd1;" horiz-adv-x="1116" vert-adv-y="0" d="M123 26v1313q0 26 25 26h582q25 0 41 -16l205 -205q17 -17 17 -41v-1077q0 -26 -25 -26h-290q-26 0 -26 26v1067h-188v-1067q0 -26 -26 -26h-290q-26 0 -25 26zM341 1444l67 160q11 17 20 17h143q11 0 18 -17l27 -73l27 73q8 17 36 17h82q23 0 13 -28l-62 -159 q-6 -17 -21 -17h-142q-10 0 -16 17l-20 78l-49 -78q-10 -17 -36 -17h-74q-23 0 -13 27z" />
<glyph unicode="&#xd2;" horiz-adv-x="1174" vert-adv-y="0" d="M123 263v840q0 24 17 41l205 205q17 16 41 16h402q25 0 41 -16l205 -205q17 -17 18 -41v-840q0 -25 -18 -41l-205 -205q-16 -17 -41 -17h-402q-24 0 -41 17l-205 205q-17 16 -17 41zM419 1554l58 122q9 25 28 13l241 -157q18 -12 12 -30l-36 -77q-8 -18 -28 -9l-264 110 q-19 10 -11 28zM465 331q0 -58 42 -58h161q43 0 43 58v703q0 58 -43 59h-161q-42 0 -42 -59v-703z" />
<glyph unicode="&#xd3;" horiz-adv-x="1174" vert-adv-y="0" d="M123 263v840q0 24 17 41l205 205q17 16 41 16h402q25 0 41 -16l205 -205q17 -17 18 -41v-840q0 -25 -18 -41l-205 -205q-16 -17 -41 -17h-402q-24 0 -41 17l-205 205q-17 16 -17 41zM420 1502q-7 18 11 30l242 157q18 11 27 -13l59 -122q8 -17 -12 -28l-264 -110 q-19 -9 -27 9zM465 331q0 -58 42 -58h161q43 0 43 58v703q0 58 -43 59h-161q-42 0 -42 -59v-703z" />
<glyph unicode="&#xd4;" horiz-adv-x="1174" vert-adv-y="0" d="M123 263v840q0 24 17 41l205 205q17 16 41 16h402q25 0 41 -16l205 -205q17 -17 18 -41v-840q0 -25 -18 -41l-205 -205q-16 -17 -41 -17h-402q-24 0 -41 17l-205 205q-17 16 -17 41zM359 1425q-5 8 1 20l91 176q8 17 31 18h210q23 0 31 -18l92 -176q7 -12 1.5 -20 t-17.5 -8h-145q-15 0 -28 20l-27 54l-5 23h-14l-3 -23l-28 -54q-11 -20 -27 -20h-145q-13 0 -18 8zM465 331q0 -58 42 -58h161q43 0 43 58v703q0 58 -43 59h-161q-42 0 -42 -59v-703z" />
<glyph unicode="&#xd5;" horiz-adv-x="1174" vert-adv-y="0" d="M123 263v840q0 24 17 41l205 205q17 16 41 16h402q25 0 41 -16l205 -205q17 -17 18 -41v-840q0 -25 -18 -41l-205 -205q-16 -17 -41 -17h-402q-24 0 -41 17l-205 205q-17 16 -17 41zM372 1444l67 160q11 17 20 17h143q11 0 18 -17l27 -73l27 73q8 17 36 17h82 q23 0 13 -28l-62 -159q-6 -17 -21 -17h-142q-10 0 -16 17l-20 78l-49 -78q-10 -17 -36 -17h-74q-23 0 -13 27zM465 331q0 -58 42 -58h161q43 0 43 58v703q0 58 -43 59h-161q-42 0 -42 -59v-703z" />
<glyph unicode="&#xd6;" horiz-adv-x="1174" vert-adv-y="0" d="M123 263v840q0 24 17 41l205 205q17 16 41 16h402q25 0 41 -16l205 -205q17 -17 18 -41v-840q0 -25 -18 -41l-205 -205q-16 -17 -41 -17h-402q-24 0 -41 17l-205 205q-17 16 -17 41zM270 1471v130q0 20 20 20h244q18 0 19 -20v-130q0 -20 -19 -21h-244q-20 0 -20 21z M465 331q0 -58 42 -58h161q43 0 43 58v703q0 58 -43 59h-161q-42 0 -42 -59v-703zM623 1471v130q0 20 21 20h243q18 0 19 -20v-130q0 -20 -19 -21h-243q-20 0 -21 21z" />
<glyph unicode="&#xd7;" horiz-adv-x="723" vert-adv-y="0" d="M51 512q-20 20 0 39l131 132l-131 131q-20 20 0 39l140 140q18 20 39 0l131 -131l133 131q18 20 38 0l141 -140q18 -18 0 -39l-132 -131l132 -132q18 -18 0 -39l-141 -140q-20 -18 -38 0l-133 132l-131 -132q-21 -18 -39 0z" />
<glyph unicode="&#xd8;" horiz-adv-x="1174" vert-adv-y="0" d="M16 24l326 493l67 101l339 514l42 63l96 146q9 15 14 19.5t13 4.5h200q15 0 22 -8t0 -20l-264 -399l-45 -69l-402 -609l-42 -63l-116 -177q-7 -11 -11.5 -17.5t-15.5 -6.5h-200q-13 0 -22.5 7t-0.5 21zM123 263v840q0 24 17 41l205 205q17 16 41 16h402q25 0 41 -16 l205 -205q17 -17 18 -41v-840q0 -25 -18 -41l-205 -205q-16 -17 -41 -17h-402q-24 0 -41 17l-205 205q-17 16 -17 41zM465 331q0 -58 42 -58h161q43 0 43 58v703q0 58 -43 59h-161q-42 0 -42 -59v-703z" />
<glyph unicode="&#xd9;" horiz-adv-x="1116" vert-adv-y="0" d="M123 263v1076q0 26 25 26h290q26 0 26 -26v-1045q0 -20 20 -21h168v1066q0 26 26 26h290q26 0 25 -26v-1313q0 -26 -25 -26h-582q-25 0 -41 17l-205 205q-17 16 -17 41zM388 1554l58 122q9 25 28 13l241 -157q18 -12 12 -30l-36 -77q-8 -18 -28 -9l-264 110 q-19 10 -11 28z" />
<glyph unicode="&#xda;" horiz-adv-x="1116" vert-adv-y="0" d="M123 263v1076q0 26 25 26h290q26 0 26 -26v-1045q0 -20 20 -21h168v1066q0 26 26 26h290q26 0 25 -26v-1313q0 -26 -25 -26h-582q-25 0 -41 17l-205 205q-17 16 -17 41zM389 1502q-7 18 11 30l242 157q18 11 27 -13l59 -122q8 -17 -12 -28l-264 -110q-19 -9 -27 9z" />
<glyph unicode="&#xdb;" horiz-adv-x="1116" vert-adv-y="0" d="M123 263v1076q0 26 25 26h290q26 0 26 -26v-1045q0 -20 20 -21h168v1066q0 26 26 26h290q26 0 25 -26v-1313q0 -26 -25 -26h-582q-25 0 -41 17l-205 205q-17 16 -17 41zM328 1425q-5 8 1 20l91 176q8 17 31 18h210q23 0 31 -18l92 -176q7 -12 1.5 -20t-17.5 -8h-145 q-15 0 -28 20l-27 54l-5 23h-14l-3 -23l-28 -54q-11 -20 -27 -20h-145q-13 0 -18 8z" />
<glyph unicode="&#xdc;" horiz-adv-x="1116" vert-adv-y="0" d="M123 263v1076q0 26 25 26h290q26 0 26 -26v-1045q0 -20 20 -21h168v1066q0 26 26 26h290q26 0 25 -26v-1313q0 -26 -25 -26h-582q-25 0 -41 17l-205 205q-17 16 -17 41zM240 1471v130q0 20 20 20h244q18 0 19 -20v-130q0 -20 -19 -21h-244q-20 0 -20 21zM593 1471v130 q0 20 21 20h243q18 0 19 -20v-130q0 -20 -19 -21h-243q-20 0 -21 21z" />
<glyph unicode="&#xdd;" horiz-adv-x="1075" vert-adv-y="0" d="M82 729v610q0 26 26 26h289q26 0 26 -26v-619h229v619q0 26 26 26h290q26 0 25 -26v-610q0 -9 -1 -15.5t-9 -15.5l-273 -273v-399q0 -26 -26 -26h-292q-26 0 -25 26v399l-275 273q-7 8 -8.5 15t-1.5 16zM369 1502q-7 18 11 30l242 157q18 11 27 -13l59 -122 q8 -17 -12 -28l-264 -110q-19 -9 -27 9z" />
<glyph unicode="&#xde;" horiz-adv-x="966" vert-adv-y="0" d="M123 28v1310q0 27 28 27h286q27 0 27 -27v-331l-68 68h339q20 0 31 -12l148 -154q9 -8 10 -26v-429q0 -18 -10 -27l-148 -154q-10 -12 -31 -12h-339l68 69v-302q0 -28 -27 -28h-286q-28 0 -28 28zM350 683q0 -95 31.5 -129t115.5 -34q85 0 115.5 34t30.5 129 q0 94 -30.5 128t-115.5 34q-84 0 -115.5 -34t-31.5 -128z" />
<glyph unicode="&#xdf;" horiz-adv-x="1169" vert-adv-y="0" d="M123 26v1313q0 26 25 26h702q25 0 38 -10l103 -92q7 -4 8.5 -12.5t0.5 -14.5l-81 -358v-31h97q26 0 25 -26v-466l-181 -345q-4 -10 -18 -10h-236q-26 0 -25 26v259l122 299v44h-109q-13 0 -22.5 9.5t-5.5 22.5l87 361h-189v-995q0 -26 -26 -26h-290q-26 0 -25 26z" />
<glyph unicode="&#xe0;" vert-adv-y="0" d="M116 263v600q0 25 17 41l205 205q17 17 41 17h548q26 0 25 -25v-1075q0 -26 -25 -26h-213q-13 0 -20 5t-15 12l-51 52l-51 -52q-16 -17 -41 -17h-157q-24 0 -41 17l-205 205q-17 16 -17 41zM440 299q0 -34 12.5 -47t46.5 -13h71q33 0 45.5 13t12.5 47v589h-129 q-34 0 -46.5 -13.5t-12.5 -47.5v-528zM475 1315l58 122q9 25 28 13l241 -157q18 -12 12 -30l-36 -77q-8 -18 -28 -9l-264 110q-19 10 -11 28z" />
<glyph unicode="&#xe1;" vert-adv-y="0" d="M116 263v600q0 25 17 41l205 205q17 17 41 17h548q26 0 25 -25v-1075q0 -26 -25 -26h-213q-13 0 -20 5t-15 12l-51 52l-51 -52q-16 -17 -41 -17h-157q-24 0 -41 17l-205 205q-17 16 -17 41zM440 299q0 -34 12.5 -47t46.5 -13h71q33 0 45.5 13t12.5 47v589h-129 q-34 0 -46.5 -13.5t-12.5 -47.5v-528zM476 1263q-7 18 11 30l242 157q18 11 27 -13l59 -122q8 -17 -12 -28l-264 -110q-19 -9 -27 9z" />
<glyph unicode="&#xe2;" vert-adv-y="0" d="M116 263v600q0 25 17 41l205 205q17 17 41 17h548q26 0 25 -25v-1075q0 -26 -25 -26h-213q-13 0 -20 5t-15 12l-51 52l-51 -52q-16 -17 -41 -17h-157q-24 0 -41 17l-205 205q-17 16 -17 41zM415 1186q-5 8 1 20l91 176q8 17 31 18h210q23 0 31 -18l92 -176q7 -12 1.5 -20 t-17.5 -8h-145q-15 0 -28 20l-27 54l-5 23h-14l-3 -23l-28 -54q-11 -20 -27 -20h-145q-13 0 -18 8zM440 299q0 -34 12.5 -47t46.5 -13h71q33 0 45.5 13t12.5 47v589h-129q-34 0 -46.5 -13.5t-12.5 -47.5v-528z" />
<glyph unicode="&#xe3;" vert-adv-y="0" d="M116 263v600q0 25 17 41l205 205q17 17 41 17h548q26 0 25 -25v-1075q0 -26 -25 -26h-213q-13 0 -20 5t-15 12l-51 52l-51 -52q-16 -17 -41 -17h-157q-24 0 -41 17l-205 205q-17 16 -17 41zM428 1205l67 160q11 17 20 17h143q11 0 18 -17l27 -73l27 73q8 17 36 17h82 q23 0 13 -28l-62 -159q-6 -17 -21 -17h-142q-10 0 -16 17l-20 78l-49 -78q-10 -17 -36 -17h-74q-23 0 -13 27zM440 299q0 -34 12.5 -47t46.5 -13h71q33 0 45.5 13t12.5 47v589h-129q-34 0 -46.5 -13.5t-12.5 -47.5v-528z" />
<glyph unicode="&#xe4;" vert-adv-y="0" d="M116 263v600q0 25 17 41l205 205q17 17 41 17h548q26 0 25 -25v-1075q0 -26 -25 -26h-213q-13 0 -20 5t-15 12l-51 52l-51 -52q-16 -17 -41 -17h-157q-24 0 -41 17l-205 205q-17 16 -17 41zM327 1232v130q0 20 20 20h244q18 0 19 -20v-130q0 -20 -19 -21h-244 q-20 0 -20 21zM440 299q0 -34 12.5 -47t46.5 -13h71q33 0 45.5 13t12.5 47v589h-129q-34 0 -46.5 -13.5t-12.5 -47.5v-528zM680 1232v130q0 20 21 20h243q18 0 19 -20v-130q0 -20 -19 -21h-243q-20 0 -21 21z" />
<glyph unicode="&#xe5;" vert-adv-y="0" d="M116 263v600q0 25 17 41l205 205q17 17 41 17h548q26 0 25 -25v-1075q0 -26 -25 -26h-213q-13 0 -20 5t-15 12l-51 52l-51 -52q-16 -17 -41 -17h-157q-24 0 -41 17l-205 205q-17 16 -17 41zM440 299q0 -34 12.5 -47t46.5 -13h71q33 0 45.5 13t12.5 47v589h-129 q-34 0 -46.5 -13.5t-12.5 -47.5v-528zM444 1203v154q0 26 26 25h351q26 0 25 -25v-154q0 -26 -25 -25h-351q-26 0 -26 25zM570 1282q0 -31 23 -54t54 -23t53 22.5t22 54.5q0 33 -21 54t-54 21q-32 0 -54.5 -22t-22.5 -53z" />
<glyph unicode="&#xe6;" horiz-adv-x="1616" vert-adv-y="0" d="M116 263v420h550l7 136l-146 48l-261 19q-17 3 -17 23v192q0 26 25 25h230q10 0 22 -3t22 -5l182 -45l209 -69q31 -10 31 -60v-681q0 -25 -18 -41l-204 -205q-17 -17 -41 -17h-328q-24 0 -41 17l-205 205q-17 16 -17 41zM415 361q0 -63 30 -101t80 -38h21q49 0 78 38 t29 101v21q0 65 -29 102.5t-79 37.5h-20q-50 0 -80 -38t-30 -102v-21zM672 182v681q0 25 17 41l205 205q17 17 41 17h328q24 0 41 -17l204 -205q17 -16 18 -41v-420h-550l-7 -136l145 -48l261 -18q17 -3 18 -24v-191q0 -26 -26 -26h-229q-10 0 -22 3t-22 5l-183 45l-209 70 q-31 10 -30 59zM988 744q0 -65 29.5 -102.5t79.5 -37.5h19q50 0 80.5 38t30.5 102v21q0 63 -30.5 101t-80.5 38h-20q-49 0 -78.5 -38t-29.5 -101v-21z" />
<glyph unicode="&#xe7;" horiz-adv-x="740" vert-adv-y="0" d="M116 348v430q0 15 4 20.5t13 18.5l105 174l177 122q9 6 18 9.5t23 3.5h177q26 0 25 -25v-192q0 -8 -1.5 -17t-9.5 -14l-117 -59l-90 -118v-273l96 -109l111 -70q10 -6 10.5 -15t0.5 -17v-191q0 -26 -25 -26h-177q-20 0 -41 13l-167 113l-115 184q-7 13 -12 18t-5 20z M408 -274q0 20 26 20h115v83h-90q-26 0 -25 26v66l52 79h138l-52 -79h66q26 0 26 -25v-162q0 -18 -14 -33l-21 -20q-7 -7 -15 -9.5t-17 -2.5h-163q-26 0 -26 22v35z" />
<glyph unicode="&#xe8;" horiz-adv-x="1060" vert-adv-y="0" d="M116 182v681q0 25 17 41l205 205q17 17 41 17h328q24 0 41 -17l204 -205q17 -16 18 -41v-420h-550l-7 -136l145 -48l261 -18q17 -3 18 -24v-191q0 -26 -26 -26h-229q-10 0 -22 3t-22 5l-183 45l-209 70q-31 10 -30 59zM381 1315l58 122q9 25 28 13l241 -157 q18 -12 12 -30l-36 -77q-8 -18 -28 -9l-264 110q-19 10 -11 28zM432 744q0 -65 29.5 -102.5t79.5 -37.5h19q50 0 80.5 38t30.5 102v21q0 63 -30.5 101t-80.5 38h-20q-49 0 -78.5 -38t-29.5 -101v-21z" />
<glyph unicode="&#xe9;" horiz-adv-x="1060" vert-adv-y="0" d="M116 182v681q0 25 17 41l205 205q17 17 41 17h328q24 0 41 -17l204 -205q17 -16 18 -41v-420h-550l-7 -136l145 -48l261 -18q17 -3 18 -24v-191q0 -26 -26 -26h-229q-10 0 -22 3t-22 5l-183 45l-209 70q-31 10 -30 59zM382 1263q-7 18 11 30l242 157q18 11 27 -13 l59 -122q8 -17 -12 -28l-264 -110q-19 -9 -27 9zM432 744q0 -65 29.5 -102.5t79.5 -37.5h19q50 0 80.5 38t30.5 102v21q0 63 -30.5 101t-80.5 38h-20q-49 0 -78.5 -38t-29.5 -101v-21z" />
<glyph unicode="&#xea;" horiz-adv-x="1060" vert-adv-y="0" d="M116 182v681q0 25 17 41l205 205q17 17 41 17h328q24 0 41 -17l204 -205q17 -16 18 -41v-420h-550l-7 -136l145 -48l261 -18q17 -3 18 -24v-191q0 -26 -26 -26h-229q-10 0 -22 3t-22 5l-183 45l-209 70q-31 10 -30 59zM321 1186q-5 8 1 20l91 176q8 17 31 18h210 q23 0 31 -18l92 -176q7 -12 1.5 -20t-17.5 -8h-145q-15 0 -28 20l-27 54l-5 23h-14l-3 -23l-28 -54q-11 -20 -27 -20h-145q-13 0 -18 8zM432 744q0 -65 29.5 -102.5t79.5 -37.5h19q50 0 80.5 38t30.5 102v21q0 63 -30.5 101t-80.5 38h-20q-49 0 -78.5 -38t-29.5 -101v-21z " />
<glyph unicode="&#xeb;" horiz-adv-x="1060" vert-adv-y="0" d="M116 182v681q0 25 17 41l205 205q17 17 41 17h328q24 0 41 -17l204 -205q17 -16 18 -41v-420h-550l-7 -136l145 -48l261 -18q17 -3 18 -24v-191q0 -26 -26 -26h-229q-10 0 -22 3t-22 5l-183 45l-209 70q-31 10 -30 59zM232 1232v130q0 20 20 20h244q18 0 19 -20v-130 q0 -20 -19 -21h-244q-20 0 -20 21zM432 744q0 -65 29.5 -102.5t79.5 -37.5h19q50 0 80.5 38t30.5 102v21q0 63 -30.5 101t-80.5 38h-20q-49 0 -78.5 -38t-29.5 -101v-21zM585 1232v130q0 20 21 20h243q18 0 19 -20v-130q0 -20 -19 -21h-243q-20 0 -21 21z" />
<glyph unicode="&#xec;" horiz-adv-x="409" vert-adv-y="0" d="M35 1315l58 122q9 25 28 13l241 -157q18 -12 12 -30l-36 -77q-8 -18 -28 -9l-264 110q-19 10 -11 28zM43 26v1075q0 26 26 25h272q26 0 26 -25v-1075q0 -26 -26 -26h-272q-26 0 -26 26z" />
<glyph unicode="&#xed;" horiz-adv-x="409" vert-adv-y="0" d="M36 1263q-7 18 11 30l242 157q18 11 27 -13l59 -122q8 -17 -12 -28l-264 -110q-19 -9 -27 9zM43 26v1075q0 26 26 25h272q26 0 26 -25v-1075q0 -26 -26 -26h-272q-26 0 -26 26z" />
<glyph unicode="&#xee;" horiz-adv-x="409" vert-adv-y="0" d="M-25 1186q-5 8 1 20l91 176q8 17 31 18h210q23 0 31 -18l92 -176q7 -12 1.5 -20t-17.5 -8h-145q-15 0 -28 20l-27 54l-5 23h-14l-3 -23l-28 -54q-11 -20 -27 -20h-145q-13 0 -18 8zM43 26v1075q0 26 26 25h272q26 0 26 -25v-1075q0 -26 -26 -26h-272q-26 0 -26 26z" />
<glyph unicode="&#xef;" horiz-adv-x="409" vert-adv-y="0" d="M-114 1232v130q0 20 20 20h244q18 0 19 -20v-130q0 -20 -19 -21h-244q-20 0 -20 21zM43 26v1075q0 26 26 25h272q26 0 26 -25v-1075q0 -26 -26 -26h-272q-26 0 -26 26zM239 1232v130q0 20 21 20h243q18 0 19 -20v-130q0 -20 -19 -21h-243q-20 0 -21 21z" />
<glyph unicode="&#xf0;" horiz-adv-x="1184" vert-adv-y="0" d="M123 263v379q0 24 17 41l171 170q16 17 41 17h365v57l-341 253q-15 12 -16 30v129q0 26 26 26h256q19 0 31 -10l374 -295q15 -12 15 -31v-766q0 -25 -18 -41l-204 -205q-16 -17 -41 -17h-413q-24 0 -41 17l-205 205q-17 16 -17 41zM439 454q0 -112 32 -151.5t122 -39.5 q89 0 121 39.5t32 151.5t-32 151.5t-121 39.5q-90 0 -122 -40t-32 -151zM443 946q-6 7 4 20l318 375q8 9 14 16.5t17 7.5h85q10 0 16 -7t-4 -20l-318 -375q-7 -9 -13.5 -16.5t-16.5 -7.5h-86q-10 0 -16 7z" />
<glyph unicode="&#xf1;" horiz-adv-x="1075" vert-adv-y="0" d="M123 26v1075q0 26 25 25h548q24 0 41 -17l205 -205q17 -16 17 -41v-837q0 -26 -25 -26h-274q-26 0 -25 26v796q0 48 -48 48h-140v-844q0 -26 -25 -26h-274q-26 0 -25 26zM324 1205l67 160q11 17 20 17h143q11 0 18 -17l27 -73l27 73q8 17 36 17h82q23 0 13 -28l-62 -159 q-6 -17 -21 -17h-142q-10 0 -16 17l-20 78l-49 -78q-10 -17 -36 -17h-74q-23 0 -13 27z" />
<glyph unicode="&#xf2;" vert-adv-y="0" d="M116 263v600q0 25 17 41l205 205q17 17 41 17h310q25 0 41 -17l205 -205q17 -16 17 -41v-600q0 -25 -17 -41l-205 -205q-16 -17 -41 -17h-310q-24 0 -41 17l-205 205q-17 16 -17 41zM365 1315l58 122q9 25 28 13l241 -157q18 -12 12 -30l-36 -77q-8 -18 -28 -9l-264 110 q-19 10 -11 28zM440 299q0 -34 12.5 -47t46.5 -13h71q33 0 45.5 13t12.5 47v528q0 34 -12.5 47.5t-45.5 13.5h-71q-34 0 -46.5 -13.5t-12.5 -47.5v-528z" />
<glyph unicode="&#xf3;" vert-adv-y="0" d="M116 263v600q0 25 17 41l205 205q17 17 41 17h310q25 0 41 -17l205 -205q17 -16 17 -41v-600q0 -25 -17 -41l-205 -205q-16 -17 -41 -17h-310q-24 0 -41 17l-205 205q-17 16 -17 41zM366 1263q-7 18 11 30l242 157q18 11 27 -13l59 -122q8 -17 -12 -28l-264 -110 q-19 -9 -27 9zM440 299q0 -34 12.5 -47t46.5 -13h71q33 0 45.5 13t12.5 47v528q0 34 -12.5 47.5t-45.5 13.5h-71q-34 0 -46.5 -13.5t-12.5 -47.5v-528z" />
<glyph unicode="&#xf4;" vert-adv-y="0" d="M116 263v600q0 25 17 41l205 205q17 17 41 17h310q25 0 41 -17l205 -205q17 -16 17 -41v-600q0 -25 -17 -41l-205 -205q-16 -17 -41 -17h-310q-24 0 -41 17l-205 205q-17 16 -17 41zM304 1186q-5 8 1 20l91 176q8 17 31 18h210q23 0 31 -18l92 -176q7 -12 1.5 -20 t-17.5 -8h-145q-15 0 -28 20l-27 54l-5 23h-14l-3 -23l-28 -54q-11 -20 -27 -20h-145q-13 0 -18 8zM440 299q0 -34 12.5 -47t46.5 -13h71q33 0 45.5 13t12.5 47v528q0 34 -12.5 47.5t-45.5 13.5h-71q-34 0 -46.5 -13.5t-12.5 -47.5v-528z" />
<glyph unicode="&#xf5;" vert-adv-y="0" d="M116 263v600q0 25 17 41l205 205q17 17 41 17h310q25 0 41 -17l205 -205q17 -16 17 -41v-600q0 -25 -17 -41l-205 -205q-16 -17 -41 -17h-310q-24 0 -41 17l-205 205q-17 16 -17 41zM317 1205l67 160q11 17 20 17h143q11 0 18 -17l27 -73l27 73q8 17 36 17h82 q23 0 13 -28l-62 -159q-6 -17 -21 -17h-142q-10 0 -16 17l-20 78l-49 -78q-10 -17 -36 -17h-74q-23 0 -13 27zM440 299q0 -34 12.5 -47t46.5 -13h71q33 0 45.5 13t12.5 47v528q0 34 -12.5 47.5t-45.5 13.5h-71q-34 0 -46.5 -13.5t-12.5 -47.5v-528z" />
<glyph unicode="&#xf6;" vert-adv-y="0" d="M116 263v600q0 25 17 41l205 205q17 17 41 17h310q25 0 41 -17l205 -205q17 -16 17 -41v-600q0 -25 -17 -41l-205 -205q-16 -17 -41 -17h-310q-24 0 -41 17l-205 205q-17 16 -17 41zM216 1232v130q0 20 20 20h244q18 0 19 -20v-130q0 -20 -19 -21h-244q-20 0 -20 21z M440 299q0 -34 12.5 -47t46.5 -13h71q33 0 45.5 13t12.5 47v528q0 34 -12.5 47.5t-45.5 13.5h-71q-34 0 -46.5 -13.5t-12.5 -47.5v-528zM569 1232v130q0 20 21 20h243q18 0 19 -20v-130q0 -20 -19 -21h-243q-20 0 -21 21z" />
<glyph unicode="&#xf7;" horiz-adv-x="727" vert-adv-y="0" d="M43 589v187q0 26 26 26h589q26 0 26 -26v-187q0 -26 -26 -26h-589q-26 0 -26 26zM258 361q0 48 29 77t77 29t76.5 -28.5t28.5 -77.5q0 -47 -28.5 -75.5t-76.5 -28.5q-47 0 -76.5 28.5t-29.5 75.5zM258 1004q0 48 29 76.5t77 28.5t76.5 -28.5t28.5 -76.5 q0 -47 -28.5 -76.5t-76.5 -29.5q-47 0 -76.5 29t-29.5 77z" />
<glyph unicode="&#xf8;" vert-adv-y="0" d="M92 28l743 1075q17 24 44 23h73q15 0 22 -8t1 -19l-743 -1075q-15 -24 -45 -24h-72q-15 0 -22 8.5t-1 19.5zM116 263v600q0 25 17 41l205 205q17 17 41 17h310q25 0 41 -17l205 -205q17 -16 17 -41v-600q0 -25 -17 -41l-205 -205q-16 -17 -41 -17h-310q-24 0 -41 17 l-205 205q-17 16 -17 41zM440 299q0 -34 12.5 -47t46.5 -13h71q33 0 45.5 13t12.5 47v528q0 34 -12.5 47.5t-45.5 13.5h-71q-34 0 -46.5 -13.5t-12.5 -47.5v-528z" />
<glyph unicode="&#xfa;" horiz-adv-x="1075" vert-adv-y="0" d="M123 263v838q0 26 25 25h274q26 0 25 -25v-797q0 -48 48 -48h140v845q0 26 25 25h274q26 0 25 -25v-1075q0 -26 -25 -26h-548q-25 0 -41 17l-205 205q-17 16 -17 41zM372 1263q-7 18 11 30l242 157q18 11 27 -13l59 -122q8 -17 -12 -28l-264 -110q-19 -9 -27 9z" />
<glyph unicode="&#xfd;" horiz-adv-x="1075" vert-adv-y="0" d="M123 294v807q0 26 25 25h274q26 0 25 -25v-771q0 -34 12.5 -47.5t45.5 -13.5h130v832q0 26 25 25h274q26 0 25 -25v-1231q0 -31 -17 -41l-136 -87l-173 -72q-15 -6 -23 -8.5t-24 -2.5h-168q-26 0 -26 26v159q0 19 16 23l150 38l106 56q15 8 15 32v168l-95 -89 q-17 -17 -41 -18l-174 -6q-24 0 -41 17l-188 188q-17 16 -17 41zM372 1263q-7 18 11 30l242 157q18 11 27 -13l59 -122q8 -17 -12 -28l-264 -110q-19 -9 -27 9z" />
<glyph unicode="&#xfe;" horiz-adv-x="1075" vert-adv-y="0" d="M123 -282v1621q0 26 25 26h279q20 0 20 -20v-287l52 51q16 17 41 17h156q24 0 41 -17l205 -205q17 -16 17 -41v-600q0 -25 -17 -41l-205 -205q-17 -17 -41 -17h-156q-25 0 -41 17l-52 52v-351q0 -26 -25 -25h-274q-26 0 -25 25zM447 239h130q34 0 46 13t12 47v528 q0 34 -12.5 47.5t-45.5 13.5h-72q-33 0 -45.5 -13.5t-12.5 -47.5v-588z" />
<glyph unicode="&#xff;" horiz-adv-x="1075" vert-adv-y="0" d="M123 294v807q0 26 25 25h274q26 0 25 -25v-771q0 -34 12.5 -47.5t45.5 -13.5h130v832q0 26 25 25h274q26 0 25 -25v-1231q0 -31 -17 -41l-136 -87l-173 -72q-15 -6 -23 -8.5t-24 -2.5h-168q-26 0 -26 26v159q0 19 16 23l150 38l106 56q15 8 15 32v168l-95 -89 q-17 -17 -41 -18l-174 -6q-24 0 -41 17l-188 188q-17 16 -17 41zM222 1232v130q0 20 20 20h244q18 0 19 -20v-130q0 -20 -19 -21h-244q-20 0 -20 21zM575 1232v130q0 20 21 20h243q18 0 19 -20v-130q0 -20 -19 -21h-243q-20 0 -21 21z" />
<glyph unicode="&#x152;" horiz-adv-x="1597" vert-adv-y="0" d="M123 263v840q0 24 17 41l205 205q17 16 41 16h1063q26 0 26 -26v-221q0 -26 -26 -25h-397v-291h363q26 0 26 -26v-187q0 -26 -26 -26h-363v-290h397q26 0 26 -25v-222q0 -26 -26 -26h-1063q-24 0 -41 17l-205 205q-17 16 -17 41zM465 331q0 -58 42 -58h161q43 0 43 58 v703q0 58 -43 59h-161q-42 0 -42 -59v-703z" />
<glyph unicode="&#x153;" horiz-adv-x="1600" vert-adv-y="0" d="M116 263v600q0 25 17 41l205 205q17 17 41 17h310q25 0 41 -17l205 -205q17 -16 17 -41v-600q0 -25 -17 -41l-205 -205q-16 -17 -41 -17h-310q-24 0 -41 17l-205 205q-17 16 -17 41zM440 299q0 -34 12.5 -47t46.5 -13h71q33 0 45.5 13t12.5 47v528q0 34 -12.5 47.5 t-45.5 13.5h-71q-34 0 -46.5 -13.5t-12.5 -47.5v-528zM656 182v681q0 25 17 41l205 205q17 17 41 17h328q24 0 41 -17l204 -205q17 -16 18 -41v-420h-550l-7 -136l145 -48l261 -18q17 -3 18 -24v-191q0 -26 -26 -26h-229q-10 0 -22 3t-22 5l-183 45l-209 70q-31 10 -30 59z M972 744q0 -65 29.5 -102.5t79.5 -37.5h19q50 0 80.5 38t30.5 102v21q0 63 -30.5 101t-80.5 38h-20q-49 0 -78.5 -38t-29.5 -101v-21z" />
<glyph unicode="&#x178;" horiz-adv-x="1075" vert-adv-y="0" d="M82 729v610q0 26 26 26h289q26 0 26 -26v-619h229v619q0 26 26 26h290q26 0 25 -26v-610q0 -9 -1 -15.5t-9 -15.5l-273 -273v-399q0 -26 -26 -26h-292q-26 0 -25 26v399l-275 273q-7 8 -8.5 15t-1.5 16zM219 1471v130q0 20 20 20h244q18 0 19 -20v-130q0 -20 -19 -21 h-244q-20 0 -20 21zM572 1471v130q0 20 21 20h243q18 0 19 -20v-130q0 -20 -19 -21h-243q-20 0 -21 21z" />
<glyph unicode="&#x2c6;" horiz-adv-x="660" vert-adv-y="0" d="M46 1463.5q-7 11.5 0 26.5l113 217q11 22 39 22h263q29 0 39 -22l114 -217q8 -15 1.5 -26.5t-23.5 -11.5h-180q-23 0 -36 25l-36 69l-7 28h-7l-7 -28l-34 -69q-10 -25 -36 -25h-179q-17 0 -24 11.5z" />
<glyph unicode="&#x2dc;" horiz-adv-x="739" vert-adv-y="0" d="M48 1483l98 176q11 18 30 18h220q22 0 29 -18l38 -80l36 80q8 18 28 18h147q14 0 19.5 -8.5t-0.5 -21.5l-92 -176q-9 -19 -31 -19h-215q-23 0 -30 19l-46 88l-47 -88q-9 -19 -30 -19h-135q-36 0 -19 31z" />
<glyph unicode="&#x2000;" horiz-adv-x="875" vert-adv-y="0" />
<glyph unicode="&#x2001;" horiz-adv-x="1751" vert-adv-y="0" />
<glyph unicode="&#x2002;" horiz-adv-x="875" vert-adv-y="0" />
<glyph unicode="&#x2003;" horiz-adv-x="1751" vert-adv-y="0" />
<glyph unicode="&#x2004;" horiz-adv-x="583" vert-adv-y="0" />
<glyph unicode="&#x2005;" horiz-adv-x="437" vert-adv-y="0" />
<glyph unicode="&#x2006;" horiz-adv-x="291" vert-adv-y="0" />
<glyph unicode="&#x2007;" horiz-adv-x="291" vert-adv-y="0" />
<glyph unicode="&#x2008;" horiz-adv-x="218" vert-adv-y="0" />
<glyph unicode="&#x2009;" horiz-adv-x="350" vert-adv-y="0" />
<glyph unicode="&#x200a;" horiz-adv-x="97" vert-adv-y="0" />
<glyph unicode="&#x2010;" horiz-adv-x="614" vert-adv-y="0" d="M20 546v273q0 26 26 26h522q26 0 26 -26v-273q0 -26 -26 -26h-522q-26 0 -26 26z" />
<glyph unicode="&#x2011;" horiz-adv-x="614" vert-adv-y="0" d="M20 546v273q0 26 26 26h522q26 0 26 -26v-273q0 -26 -26 -26h-522q-26 0 -26 26z" />
<glyph unicode="&#x2012;" horiz-adv-x="614" vert-adv-y="0" d="M20 546v273q0 26 26 26h522q26 0 26 -26v-273q0 -26 -26 -26h-522q-26 0 -26 26z" />
<glyph unicode="&#x2013;" horiz-adv-x="921" vert-adv-y="0" d="M43 666v33q0 26 26 26h784q26 0 26 -26v-33q0 -26 -26 -26h-784q-26 0 -26 26z" />
<glyph unicode="&#x2014;" horiz-adv-x="1382" vert-adv-y="0" d="M43 666v33q0 26 26 26h1245q26 0 25 -26v-33q0 -26 -25 -26h-1245q-26 0 -26 26z" />
<glyph unicode="&#x2018;" horiz-adv-x="542" vert-adv-y="0" d="M82 970v313q0 116 54.5 171.5t145.5 55.5h128q28 0 27 -27v-144q0 -27 -27 -26h-75q-31 0 -31 -26v-31h131q26 0 26 -27l-2 -259q0 -28 -27 -28h-324q-26 0 -26 28z" />
<glyph unicode="&#x2019;" horiz-adv-x="542" vert-adv-y="0" d="M82 1223l2 259q0 28 27 28h324q26 0 26 -28v-313q0 -115 -54.5 -171t-145.5 -56h-128q-28 0 -28 27v144q0 27 28 26h75q31 0 31 26v31h-131q-26 0 -26 27z" />
<glyph unicode="&#x201a;" horiz-adv-x="542" vert-adv-y="0" d="M82 97l2 259q0 28 27 28h324q26 0 26 -28v-313q0 -115 -54.5 -171t-145.5 -56h-128q-28 0 -28 27v144q0 27 28 26h75q31 0 31 26v31h-131q-26 0 -26 27z" />
<glyph unicode="&#x201c;" horiz-adv-x="986" vert-adv-y="0" d="M82 970v313q0 116 54.5 171.5t145.5 55.5h128q28 0 27 -27v-144q0 -27 -27 -26h-75q-31 0 -31 -26v-31h131q26 0 26 -27l-2 -259q0 -28 -27 -28h-324q-26 0 -26 28zM525 970v313q0 116 55 171.5t145 55.5h128q28 0 28 -27v-144q0 -27 -28 -26h-75q-31 0 -30 -26v-31h131 q26 0 25 -27l-2 -259q0 -28 -26 -28h-325q-26 0 -26 28z" />
<glyph unicode="&#x201d;" horiz-adv-x="986" vert-adv-y="0" d="M82 1223l2 259q0 28 27 28h324q26 0 26 -28v-313q0 -115 -54.5 -171t-145.5 -56h-128q-28 0 -28 27v144q0 27 28 26h75q31 0 31 26v31h-131q-26 0 -26 27zM525 1223l2 259q0 28 27 28h324q26 0 26 -28v-313q0 -115 -54.5 -171t-145.5 -56h-128q-28 0 -28 27v144 q0 27 28 26h75q31 0 31 26v31h-131q-26 0 -26 27z" />
<glyph unicode="&#x201e;" horiz-adv-x="986" vert-adv-y="0" d="M82 97l2 259q0 28 27 28h324q26 0 26 -28v-313q0 -115 -54.5 -171t-145.5 -56h-128q-28 0 -28 27v144q0 27 28 26h75q31 0 31 26v31h-131q-26 0 -26 27zM525 97l2 259q0 28 27 28h324q26 0 26 -28v-313q0 -115 -54.5 -171t-145.5 -56h-128q-28 0 -28 27v144q0 27 28 26 h75q31 0 31 26v31h-131q-26 0 -26 27z" />
<glyph unicode="&#x2022;" horiz-adv-x="733" vert-adv-y="0" d="M82 401v490q0 41 39 41h492q38 0 38 -41v-490q0 -42 -38 -42h-492q-39 0 -39 42z" />
<glyph unicode="&#x2026;" horiz-adv-x="1764" vert-adv-y="0" d="M82 36v325q0 28 26 28h327q26 0 26 -28v-325q0 -28 -26 -28h-327q-26 0 -26 28zM678 36v325q0 28 26 28h327q26 0 26 -28v-325q0 -28 -26 -28h-327q-26 0 -26 28zM1304 36v325q0 28 26 28h327q26 0 26 -28v-325q0 -28 -26 -28h-327q-26 0 -26 28z" />
<glyph unicode="&#x202f;" horiz-adv-x="350" vert-adv-y="0" />
<glyph unicode="&#x2039;" horiz-adv-x="642" vert-adv-y="0" d="M82 529v68q0 17 3 23.5t14 17.5l360 376q11 10 19 11.5t22 1.5h35q26 0 25 -26v-159q0 -9 -1.5 -16.5t-10.5 -16.5l-233 -227v-36l233 -229q9 -9 10.5 -16t1.5 -16v-160q0 -26 -25 -26h-35q-13 0 -21.5 1.5t-19.5 12.5l-360 375q-11 11 -14 18t-3 23z" />
<glyph unicode="&#x203a;" horiz-adv-x="642" vert-adv-y="0" d="M82 125v160q0 9 1.5 16t10.5 16l233 229v36l-233 227q-9 9 -10.5 16.5t-1.5 16.5v159q0 26 26 26h34q14 0 22.5 -1.5t18.5 -11.5l360 -376q11 -11 14 -17.5t3 -23.5v-68q0 -16 -3 -22.5t-14 -18.5l-360 -375q-10 -10 -18.5 -12t-22.5 -2h-34q-26 0 -26 26z" />
<glyph unicode="&#x205f;" horiz-adv-x="437" vert-adv-y="0" />
<glyph unicode="&#x20ac;" horiz-adv-x="883" vert-adv-y="0" d="M43 591v16q0 26 26 26h747q26 0 26 -26v-16q0 -26 -26 -26h-747q-26 0 -26 26zM43 744v17q0 26 26 25h747q26 0 26 -25v-17q0 -26 -26 -25h-747q-26 0 -26 25zM164 292v205h338l327 -258q9 -7 11 -15.5t2 -16.5v-181q0 -26 -26 -26h-287q-24 0 -41 13l-307 238 q-14 10 -15.5 17t-1.5 24zM164 855v222q0 16 1.5 23.5t15.5 17.5l307 234q17 13 41 13h287q26 0 26 -26v-197q0 -9 -1.5 -17t-11.5 -16l-327 -254h-338z" />
<glyph unicode="&#x2122;" horiz-adv-x="1457" vert-adv-y="0" d="M43 1157v197q0 11 13 11h384q12 0 13 -11v-197q0 -13 -13 -13h-94v-448q0 -13 -13 -13h-171q-11 0 -11 13v448h-95q-13 0 -13 13zM502 696v538q0 12 8 20l102 103q8 8 21 8h207q12 0 20 -8l87 -85h24l86 85q7 8 20 8h206q13 0 21 -8l102 -103q9 -9 9 -20v-538 q0 -13 -12 -13h-188q-14 0 -14 13v439h-136v-439q0 -13 -12 -13h-188q-13 0 -13 13v439h-137v-439q0 -13 -12 -13h-188q-13 0 -13 13z" />
<glyph unicode="&#x25fc;" horiz-adv-x="1126" vert-adv-y="2252" d="M0 0v1126h1126v-1126h-1126z" />
</font>
</defs>
</svg>
